<svg xmlns="http://www.w3.org/2000/svg" viewBox="0 0 500 500"><g id="freepik--background-simple--inject-98"><path d="M441.7,104.54A147.55,147.55,0,0,0,399,66.37C371.45,50,340.36,40.15,308.9,34.7c-99.55-17.23-154.12,1-195.28,30.63C86.36,85,77.79,126.82,69.74,157.23c-4.52,17.07-8.55,34.32-14.17,51.07-8.73,26-28.56,47-35.17,73.81-7,28.29-6.45,58.09,3.24,85.71C42.79,422.38,75.33,454,150,464.5c40,5.64,72.15-10.89,105.34-30.78,20.46-12.26,41.67-23.31,65.15-28.31,24.8-5.27,50.31-6,75.18-10.9,55.63-10.95,73.48-63.6,80.71-113.47C485.13,220.66,479.65,154.67,441.7,104.54Z" style="fill:#90CAF9"></path><path d="M441.7,104.54A147.55,147.55,0,0,0,399,66.37C371.45,50,340.36,40.15,308.9,34.7c-99.55-17.23-154.12,1-195.28,30.63C86.36,85,77.79,126.82,69.74,157.23c-4.52,17.07-8.55,34.32-14.17,51.07-8.73,26-28.56,47-35.17,73.81-7,28.29-6.45,58.09,3.24,85.71C42.79,422.38,75.33,454,150,464.5c40,5.64,72.15-10.89,105.34-30.78,20.46-12.26,41.67-23.31,65.15-28.31,24.8-5.27,50.31-6,75.18-10.9,55.63-10.95,73.48-63.6,80.71-113.47C485.13,220.66,479.65,154.67,441.7,104.54Z" style="fill:#fff;opacity:0.7000000000000001"></path></g><g id="freepik--Window--inject-98"><g style="opacity:0.2"><polygon points="477.54 59.11 286.78 59.11 280.01 75.34 477.54 75.34 477.54 59.11" style="fill:none;stroke:#000;stroke-linejoin:round"></polygon><polygon points="477.54 75.34 286.78 75.34 280.01 91.58 477.54 91.58 477.54 75.34" style="fill:none;stroke:#000;stroke-linejoin:round"></polygon><polygon points="477.54 91.58 286.78 91.58 280.01 107.81 477.54 107.81 477.54 91.58" style="fill:none;stroke:#000;stroke-linejoin:round"></polygon><polygon points="477.54 107.81 286.78 107.81 280.01 124.05 477.54 124.05 477.54 107.81" style="fill:none;stroke:#000;stroke-linejoin:round"></polygon><polygon points="477.54 124.05 286.78 124.05 280.01 140.28 477.54 140.28 477.54 124.05" style="fill:none;stroke:#000;stroke-linejoin:round"></polygon><polygon points="477.54 140.28 286.78 140.28 280.01 156.52 477.54 156.52 477.54 140.28" style="fill:none;stroke:#000;stroke-linejoin:round"></polygon><polygon points="477.54 156.52 286.78 156.52 280.01 172.75 477.54 172.75 477.54 156.52" style="fill:none;stroke:#000;stroke-linejoin:round"></polygon><polygon points="477.54 172.75 286.78 172.75 280.01 188.99 477.54 188.99 477.54 172.75" style="fill:none;stroke:#000;stroke-linejoin:round"></polygon><polygon points="477.54 188.99 286.78 188.99 280.01 205.22 477.54 205.22 477.54 188.99" style="fill:none;stroke:#000;stroke-linejoin:round"></polygon><polygon points="477.54 205.22 286.78 205.22 280.01 221.46 477.54 221.46 477.54 205.22" style="fill:none;stroke:#000;stroke-linejoin:round"></polygon><polygon points="477.54 221.46 286.78 221.46 280.01 237.69 477.54 237.69 477.54 221.46" style="fill:none;stroke:#000;stroke-linejoin:round"></polygon><polygon points="477.54 237.69 286.78 237.69 280.01 253.93 477.54 253.93 477.54 237.69" style="fill:none;stroke:#000;stroke-linejoin:round"></polygon><polygon points="477.54 253.93 286.78 253.93 280.01 270.16 477.54 270.16 477.54 253.93" style="fill:none;stroke:#000;stroke-linejoin:round"></polygon><polygon points="477.54 270.16 286.78 270.16 280.01 286.4 477.54 286.4 477.54 270.16" style="fill:none;stroke:#000;stroke-linejoin:round"></polygon><polygon points="477.54 286.4 286.78 286.4 280.01 302.63 477.54 302.63 477.54 286.4" style="fill:none;stroke:#000;stroke-linejoin:round"></polygon><polygon points="477.54 302.63 286.78 302.63 280.01 318.87 477.54 318.87 477.54 302.63" style="fill:none;stroke:#000;stroke-linejoin:round"></polygon><rect x="277.98" y="53.7" width="203.61" height="270.58" style="fill:none;stroke:#000;stroke-linejoin:round"></rect></g></g><g id="freepik--Lamp--inject-98"><g style="opacity:0.2"><rect x="37.29" y="421.87" width="68.42" height="36.11" style="fill:none;stroke:#000;stroke-linejoin:round"></rect><rect x="65.94" y="435.7" width="11.11" height="5.38" style="fill:none;stroke:#000;stroke-linejoin:round"></rect><rect x="33.78" y="374.94" width="75.43" height="92.39" style="fill:none;stroke:#000;stroke-linejoin:round"></rect><rect x="37.29" y="379.62" width="68.42" height="36.11" style="fill:none;stroke:#000;stroke-linejoin:round"></rect><rect x="65.94" y="393.45" width="11.11" height="5.38" style="fill:none;stroke:#000;stroke-linejoin:round"></rect><rect x="52.1" y="369.09" width="26.9" height="5.85" style="fill:none;stroke:#000;stroke-linejoin:round"></rect><rect x="62.04" y="350.97" width="4.68" height="18.13" style="fill:none;stroke:#000;stroke-linejoin:round"></rect><rect x="38.65" y="308.86" width="50.29" height="42.1" style="fill:none;stroke:#000;stroke-linejoin:round"></rect></g></g><g id="freepik--Couch--inject-98"><g style="opacity:0.2"><path d="M388.9,423.59v-77.2a11.09,11.09,0,0,0-11.1-11.1H276.38v89.07" style="fill:none;stroke:#000;stroke-linejoin:round"></path><path d="M277.23,335.29H173.92a11.09,11.09,0,0,0-11.09,11.1v77.2" style="fill:none;stroke:#000;stroke-linejoin:round"></path><path d="M398.92,431v26H276.43V423.59H391.54A7.37,7.37,0,0,1,398.92,431Z" style="fill:none;stroke:#000;stroke-linejoin:round"></path><path d="M277.36,423.59H160.18a7.37,7.37,0,0,0-7.37,7.38v26H277.36" style="fill:none;stroke:#000;stroke-linejoin:round"></path><polyline points="152.81 467.84 152.81 456.93 399.13 456.93 399.13 467.84" style="fill:none;stroke:#000;stroke-linejoin:round"></polyline><path d="M162.83,379.29a7.45,7.45,0,0,0-5.37-2.29H135.15a7.43,7.43,0,0,0-7.44,7.43v82.88" style="fill:none;stroke:#000;stroke-linejoin:round"></path><path d="M421.43,466.77V384.43A7.43,7.43,0,0,0,414,377H391.69a7.19,7.19,0,0,0-2.79.55" style="fill:none;stroke:#000;stroke-linejoin:round"></path></g></g><g id="freepik--Certification--inject-98"><path d="M438.46,52.06v241a11,11,0,0,1-11,11h-348a11,11,0,0,1-11-11v-241a10,10,0,0,1,10-10h350A10,10,0,0,1,438.46,52.06Z" style="fill:#90CAF9;stroke:#263238;stroke-miterlimit:10"></path><path d="M438.46,52.06v20.8h-370V52.06a10,10,0,0,1,10-10h350A10,10,0,0,1,438.46,52.06Z" style="fill:#c9c9c9;stroke:#263238;stroke-miterlimit:10"></path><path d="M306.92,68.83H109.54a3.36,3.36,0,0,1-3.35-3.36h0a3.36,3.36,0,0,1,3.35-3.36H306.92a3.36,3.36,0,0,1,3.36,3.36h0A3.36,3.36,0,0,1,306.92,68.83Z" style="fill:#fff;stroke:#263238;stroke-miterlimit:10"></path><line x1="419.71" y1="62.78" x2="432.47" y2="62.78" style="fill:none;stroke:#263238;stroke-miterlimit:10"></line><line x1="419.71" y1="65.47" x2="432.47" y2="65.47" style="fill:none;stroke:#263238;stroke-miterlimit:10"></line><line x1="419.71" y1="68.16" x2="432.47" y2="68.16" style="fill:none;stroke:#263238;stroke-miterlimit:10"></line><path d="M438.46,52.06v6h-370v-6a10,10,0,0,1,10-10h350A10,10,0,0,1,438.46,52.06Z" style="fill:#263238;stroke:#263238;stroke-miterlimit:10"></path><path d="M401.6,50.39a3.06,3.06,0,1,0-3.05,3A3,3,0,0,0,401.6,50.39Z" style="fill:#fff;stroke:#263238;stroke-miterlimit:10"></path><path d="M414.24,50.39a3.05,3.05,0,1,0-3.05,3A3,3,0,0,0,414.24,50.39Z" style="fill:#fff;stroke:#263238;stroke-miterlimit:10"></path><path d="M426.88,50.39a3.05,3.05,0,1,0-3.05,3A3,3,0,0,0,426.88,50.39Z" style="fill:#fff;stroke:#263238;stroke-miterlimit:10"></path><rect x="89.41" y="83.13" width="329.11" height="205.96" style="fill:#fff;stroke:#263238;stroke-miterlimit:10"></rect><rect x="97.8" y="91.66" width="312.32" height="188.88" style="fill:none;stroke:#90CAF9;stroke-miterlimit:10;stroke-width:5px"></rect><rect x="105.78" y="101.11" width="296.36" height="170" style="fill:none;stroke:#90CAF9;stroke-miterlimit:10"></rect><path d="M204.4,121v1.75h-2.06v-1.86c0-1.75-.69-2.8-2.27-2.8s-2.27,1-2.27,2.8v10.26c0,1.74.72,2.8,2.27,2.8s2.27-1.06,2.27-2.8v-2.53h2.06V131c0,2.94-1.39,4.88-4.39,4.88s-4.35-1.94-4.35-4.88V121c0-2.94,1.39-4.88,4.35-4.88S204.4,118.05,204.4,121Z" style="fill:#263238"></path><path d="M213.27,124.9v1.94h-4.75v6.9h5.83v2h-8V116.3h8v2h-5.83v6.63Z" style="fill:#263238"></path><path d="M220.67,116.3c3.05,0,4.32,1.56,4.32,4.44v1.58c0,2.14-.75,3.47-2.41,4,1.77.53,2.44,2,2.44,4.05v3a4.86,4.86,0,0,0,.39,2.33h-2.19a5,5,0,0,1-.36-2.35v-3.05c0-2.2-1-2.89-2.83-2.89H218.5v8.29h-2.16V116.3Zm-.56,9.15c1.72,0,2.75-.55,2.75-2.66v-1.86c0-1.74-.64-2.66-2.25-2.66H218.5v7.18Z" style="fill:#263238"></path><path d="M230.09,135.71V118.27h-3.57v-2h9.31v2h-3.57v17.44Z" style="fill:#263238"></path><path d="M239.49,116.3v19.41h-2.16V116.3Z" style="fill:#263238"></path><path d="M248.34,125.34v2h-4.47v8.4h-2.16V116.3h7.71v2h-5.55v7.07Z" style="fill:#263238"></path><path d="M253.3,116.3v19.41h-2.17V116.3Z" style="fill:#263238"></path><path d="M264.08,121v1.75H262v-1.86c0-1.75-.69-2.8-2.27-2.8s-2.28,1-2.28,2.8v10.26c0,1.74.72,2.8,2.28,2.8s2.27-1.06,2.27-2.8v-2.53h2.05V131c0,2.94-1.38,4.88-4.38,4.88s-4.35-1.94-4.35-4.88V121c0-2.94,1.38-4.88,4.35-4.88S264.08,118.05,264.08,121Z" style="fill:#263238"></path><path d="M268.24,131.8l-.75,3.91h-2l3.71-19.41h3.13l3.72,19.41H273.9l-.75-3.91Zm.28-1.86h4.32l-2.19-11.2Z" style="fill:#263238"></path><path d="M280.58,135.71V118.27H277v-2h9.32v2h-3.58v17.44Z" style="fill:#263238"></path><path d="M290,116.3v19.41h-2.16V116.3Z" style="fill:#263238"></path><path d="M292,121c0-3,1.47-4.88,4.43-4.88s4.47,1.91,4.47,4.88v10c0,2.94-1.47,4.88-4.47,4.88S292,134,292,131Zm2.13,10.15c0,1.77.75,2.8,2.3,2.8s2.3-1,2.3-2.8V120.88c0-1.75-.72-2.8-2.3-2.8s-2.3,1-2.3,2.8Z" style="fill:#263238"></path><path d="M304.89,135.71H303V116.3h2.74l4.49,14v-14h1.92v19.41h-2.25l-5-15.69Z" style="fill:#263238"></path><line x1="181.25" y1="146.53" x2="330.12" y2="146.53" style="fill:none;stroke:#263238;stroke-miterlimit:10"></line><line x1="382.1" y1="165.52" x2="392.4" y2="165.52" style="fill:none;stroke:#263238;stroke-miterlimit:10"></line><line x1="293.97" y1="165.52" x2="376.66" y2="165.52" style="fill:none;stroke:#263238;stroke-miterlimit:10"></line><line x1="246.1" y1="165.52" x2="289.25" y2="165.52" style="fill:none;stroke:#263238;stroke-miterlimit:10"></line><line x1="181.9" y1="165.52" x2="241.74" y2="165.52" style="fill:none;stroke:#263238;stroke-miterlimit:10"></line><line x1="143.09" y1="165.52" x2="175.73" y2="165.52" style="fill:none;stroke:#263238;stroke-miterlimit:10"></line><line x1="118.97" y1="165.52" x2="138.38" y2="165.52" style="fill:none;stroke:#263238;stroke-miterlimit:10"></line><line x1="242.83" y1="174.63" x2="392.4" y2="174.63" style="fill:none;stroke:#263238;stroke-miterlimit:10"></line><line x1="126.77" y1="174.63" x2="238.12" y2="174.63" style="fill:none;stroke:#263238;stroke-miterlimit:10"></line><line x1="118.97" y1="174.63" x2="122.42" y2="174.63" style="fill:none;stroke:#263238;stroke-miterlimit:10"></line><line x1="381.01" y1="183.74" x2="392.4" y2="183.74" style="fill:none;stroke:#263238;stroke-miterlimit:10"></line><line x1="319.72" y1="183.74" x2="375.57" y2="183.74" style="fill:none;stroke:#263238;stroke-miterlimit:10"></line><line x1="235.21" y1="183.74" x2="315.37" y2="183.74" style="fill:none;stroke:#263238;stroke-miterlimit:10"></line><line x1="222.88" y1="183.74" x2="230.5" y2="183.74" style="fill:none;stroke:#263238;stroke-miterlimit:10"></line><line x1="118.97" y1="183.74" x2="216.35" y2="183.74" style="fill:none;stroke:#263238;stroke-miterlimit:10"></line><line x1="346.92" y1="192.86" x2="392.4" y2="192.86" style="fill:none;stroke:#263238;stroke-miterlimit:10"></line><line x1="184.44" y1="192.86" x2="342.57" y2="192.86" style="fill:none;stroke:#263238;stroke-miterlimit:10"></line><line x1="169.93" y1="192.86" x2="178.64" y2="192.86" style="fill:none;stroke:#263238;stroke-miterlimit:10"></line><line x1="118.97" y1="192.86" x2="165.22" y2="192.86" style="fill:none;stroke:#263238;stroke-miterlimit:10"></line><line x1="363.97" y1="201.97" x2="392.4" y2="201.97" style="fill:none;stroke:#263238;stroke-miterlimit:10"></line><line x1="242.47" y1="201.97" x2="358.17" y2="201.97" style="fill:none;stroke:#263238;stroke-miterlimit:10"></line><line x1="196.04" y1="201.97" x2="237.03" y2="201.97" style="fill:none;stroke:#263238;stroke-miterlimit:10"></line><line x1="131.12" y1="201.97" x2="190.6" y2="201.97" style="fill:none;stroke:#263238;stroke-miterlimit:10"></line><line x1="118.97" y1="201.97" x2="127.5" y2="201.97" style="fill:none;stroke:#263238;stroke-miterlimit:10"></line><polygon points="130.02 242.11 139.4 266.48 143.94 255.46 154.97 259.95 144.19 237.07 130.02 242.11" style="fill:#263238;stroke:#263238;stroke-linecap:round;stroke-linejoin:round"></polygon><polygon points="126.67 236.81 115.32 260.32 126.46 256.11 130.73 267.22 140.05 243.71 126.67 236.81" style="fill:#263238;stroke:#263238;stroke-linecap:round;stroke-linejoin:round"></polygon><path d="M154.94,230.89c0-.89,1.93-1.91,1.81-2.77s-2.26-1.31-2.51-2.14,1.31-2.37.95-3.16-2.54-.61-3-1.35.59-2.64,0-3.3-2.61.13-3.27-.45-.16-2.69-.9-3.17-2.46.86-3.27.49-.91-2.54-1.76-2.79-2.11,1.52-3,1.4-1.59-2.18-2.48-2.18-1.62,2.06-2.48,2.18-2.16-1.64-3-1.4-1,2.43-1.77,2.79-2.52-1-3.26-.49-.24,2.6-.9,3.18-2.7-.22-3.27.44.49,2.56,0,3.3-2.65.55-3,1.35,1.2,2.31.95,3.16-2.38,1.27-2.51,2.14,1.81,1.88,1.81,2.77-1.93,1.9-1.81,2.76,2.26,1.31,2.51,2.15-1.32,2.36-.95,3.15,2.54.62,3,1.35-.6,2.64,0,3.3,2.6-.13,3.27.45.16,2.69.9,3.17,2.46-.86,3.26-.49.92,2.54,1.77,2.79,2.11-1.52,3-1.39,1.59,2.17,2.48,2.17,1.62-2.05,2.48-2.17,2.16,1.63,3,1.39,1-2.43,1.77-2.79,2.52,1,3.26.49.24-2.6.9-3.17,2.7.21,3.27-.45-.49-2.56,0-3.3,2.65-.55,3-1.35-1.2-2.31-.95-3.16,2.38-1.26,2.51-2.14S154.94,231.78,154.94,230.89Z" style="fill:#90CAF9;stroke:#263238;stroke-miterlimit:10"></path><circle cx="137.53" cy="230.89" r="12.06" style="fill:#263238;stroke:#263238;stroke-linecap:round;stroke-linejoin:round"></circle><polygon points="137.53 222.6 139.39 228.33 145.41 228.33 140.54 231.86 142.4 237.59 137.53 234.05 132.66 237.59 134.52 231.86 129.65 228.33 135.67 228.33 137.53 222.6" style="fill:#90CAF9"></polygon><line x1="169.13" y1="225.11" x2="215.13" y2="225.11" style="fill:none;stroke:#263238;stroke-miterlimit:10"></line><line x1="169.13" y1="236.1" x2="215.13" y2="236.1" style="fill:none;stroke:#263238;stroke-miterlimit:10"></line><circle cx="366.69" cy="234.1" r="17.1" style="fill:none;stroke:#90CAF9;stroke-miterlimit:10"></circle><circle cx="366.69" cy="234.1" r="11.6" transform="translate(-41.59 83.87) rotate(-12.35)" style="fill:#90CAF9"></circle></g><g id="freepik--Plant--inject-98"><path d="M423,426.5s-3.5-6-5.25-9.25A69.23,69.23,0,0,1,414.5,410s4.25,2.5,5.5,3.5,6.5,7.25,6.5,7.25L428,419l-1.75-5.75,5.75,6.5L434.75,408,439,419.25l8-10,.5,10,9.75-7.75-3.5,12.25L450,429H423.25Z" style="fill:#90CAF9;stroke:#263238;stroke-miterlimit:10"></path><path d="M421.5,426.5s-2.25-1-6-5.5a75.42,75.42,0,0,1-6.5-9.25s8.5,4.75,11.5,7a52.68,52.68,0,0,1,7,7.25s-2.5-6.25-2.75-9.25-.5-9.5-.5-9.5,7.25,7.25,7.75,9.25,3.25,8.75,3.25,8.75a89.56,89.56,0,0,0,2-9.25c.5-3.75,4.5-9.75,4.5-9.75s.5,4.25.75,8.5S440.25,427,440.25,427s3.25-7.75,6.5-11.5a75.2,75.2,0,0,1,8.25-7.75s-2.5,7.75-3.5,11.25a35.86,35.86,0,0,1-3.75,7.75,105.64,105.64,0,0,1,7.5-8.5A59,59,0,0,1,463,413s-2.75,5.25-4.75,8.25a90.77,90.77,0,0,1-6,7.5H421.5Z" style="fill:#90CAF9;stroke:#263238;stroke-miterlimit:10"></path><polygon points="456.7 426 454.97 441.25 452 467.33 420.67 467.33 417.7 441.25 415.97 426 456.7 426" style="fill:#fff;stroke:#263238;stroke-miterlimit:10"></polygon><polygon points="454.97 441.25 452 467.33 420.67 467.33 417.7 441.25 454.97 441.25" style="fill:#90CAF9;stroke:#263238;stroke-miterlimit:10"></polygon><circle cx="423.5" cy="447" r="1.5" style="fill:#263238"></circle><circle cx="434.5" cy="447" r="1.5" style="fill:#263238"></circle><circle cx="427.75" cy="454.75" r="1.5" style="fill:#263238"></circle><circle cx="441" cy="454.75" r="1.5" style="fill:#263238"></circle><circle cx="449.75" cy="454.75" r="1.5" style="fill:#263238"></circle><circle cx="445.5" cy="447" r="1.5" style="fill:#263238"></circle><circle cx="423.5" cy="461" r="1.5" style="fill:#263238"></circle><circle cx="434.5" cy="461" r="1.5" style="fill:#263238"></circle><circle cx="445.5" cy="461" r="1.5" style="fill:#263238"></circle></g><g id="freepik--Device--inject-98"><rect x="99.76" y="464.96" width="184.5" height="2.37" style="fill:#263238;stroke:#263238;stroke-miterlimit:10"></rect><polygon points="217.33 467.33 102.26 467.33 91.62 387.31 206.69 387.31 217.33 467.33" style="fill:#fff;stroke:#263238;stroke-miterlimit:10"></polygon><polygon points="214.99 467.33 99.93 467.33 89.29 387.31 204.35 387.31 214.99 467.33" style="fill:#fff;stroke:#263238;stroke-miterlimit:10"></polygon><path d="M108.82,467.33H214.64l-8-60.4c-14.16,9-31.41,20.65-50.21,35A161.16,161.16,0,0,1,108.82,467.33Z" style="fill:#263238;stroke:#263238;stroke-miterlimit:10"></path><ellipse cx="148.48" cy="426.57" rx="7.56" ry="6.98" style="fill:#fff;stroke:#263238;stroke-miterlimit:10"></ellipse></g><g id="freepik--Desk--inject-98"><line x1="11.17" y1="467.33" x2="473" y2="467.33" style="fill:none;stroke:#263238;stroke-miterlimit:10"></line></g></svg>