<svg xmlns="http://www.w3.org/2000/svg" viewBox="0 0 750 500"><g id="freepik--Lines--inject-4"><path d="M603.59,308.86c-.14,0-2.52-14-5.31-31.4S593.33,246,593.47,246s2.52,14,5.32,31.4S603.74,308.84,603.59,308.86Z" style="fill:#263238"></path><path d="M321.39,433c-.07.12-19.11-9.59-42.54-21.71s-42.37-22-42.3-22.16,19.11,9.58,42.54,21.7S321.45,432.85,321.39,433Z" style="fill:#263238"></path><path d="M372.11,64.81c.11.09-9.44,11.14-21.33,24.67S329.15,113.91,329,113.82s9.45-11.14,21.34-24.68S372,64.71,372.11,64.81Z" style="fill:#263238"></path><path d="M164.84,106.84c0-.14,21.59,4.82,48.13,11.06s48,11.44,48,11.58-21.58-4.82-48.13-11.07S164.81,107,164.84,106.84Z" style="fill:#263238"></path><path d="M513,217.62c.1.1-23.76,22.31-53.28,49.58s-53.54,49.32-53.63,49.21,23.75-22.3,53.28-49.59S512.9,217.51,513,217.62Z" style="fill:#263238"></path><path d="M261.09,165.89c.09.11-19.86,17.26-44.55,38.31s-44.8,38-44.89,37.91,19.85-17.26,44.55-38.31S261,165.78,261.09,165.89Z" style="fill:#263238"></path></g><g id="freepik--Circles--inject-4"><circle cx="376.97" cy="58.92" r="24.22" transform="translate(195.47 394.54) rotate(-70.48)" style="fill:#fafafa"></circle><path d="M401.19,58.92a1.69,1.69,0,0,1-.05-.39c0-.28-.05-.66-.08-1.15q0-.37-.06-.84c0-.31-.1-.65-.16-1a18.21,18.21,0,0,0-.51-2.5,23.12,23.12,0,0,0-2.69-6.4,24.17,24.17,0,0,0-32-8.85,24.41,24.41,0,0,0-2.94,1.89A28,28,0,0,0,360,42a26.25,26.25,0,0,0-2.34,2.78,23,23,0,0,0-3.43,6.6A25.85,25.85,0,0,0,353,58.92a25.8,25.8,0,0,0,1.24,7.56,23.31,23.31,0,0,0,3.42,6.61A30,30,0,0,0,360,75.87a28.16,28.16,0,0,0,2.72,2.31,24.85,24.85,0,0,0,2.94,1.89,25.46,25.46,0,0,0,3.13,1.38,24.08,24.08,0,0,0,28.84-10.23,23.17,23.17,0,0,0,2.69-6.41,16.72,16.72,0,0,0,.51-2.49c.06-.37.13-.7.16-1s0-.59.06-.85c0-.48.06-.86.08-1.14a1.87,1.87,0,0,1,.05-.4,2,2,0,0,1,0,.4l0,1.15c0,.26,0,.54,0,.85s-.09.65-.13,1a17.84,17.84,0,0,1-.47,2.52,23.27,23.27,0,0,1-2.64,6.51,24.45,24.45,0,0,1-16.41,11.56,24.63,24.63,0,0,1-12.85-1,24.91,24.91,0,0,1-3.19-1.4,24.66,24.66,0,0,1-3-1.92,26.61,26.61,0,0,1-2.77-2.36,27.26,27.26,0,0,1-2.41-2.83,23.61,23.61,0,0,1-3.5-6.74,26.29,26.29,0,0,1-1.27-7.73,26.17,26.17,0,0,1,1.27-7.72,23.48,23.48,0,0,1,3.5-6.74,27.56,27.56,0,0,1,2.41-2.84,26.8,26.8,0,0,1,2.78-2.35,25.07,25.07,0,0,1,3-1.93A26.32,26.32,0,0,1,368.63,36a24.34,24.34,0,0,1,29.26,10.53,23.35,23.35,0,0,1,2.64,6.5,18.22,18.22,0,0,1,.47,2.53c0,.36.1.7.13,1s0,.59,0,.85c0,.48,0,.87,0,1.15A1.91,1.91,0,0,1,401.19,58.92Z" style="fill:#263238"></path><circle cx="300.09" cy="137.65" r="47.07" transform="translate(95.92 397.11) rotate(-76.44)" style="fill:#fafafa"></circle><path d="M347.17,137.65s0-.25-.07-.76-.07-1.26-.14-2.23c0-.5-.06-1-.09-1.65s-.19-1.26-.3-2-.23-1.47-.36-2.29-.4-1.66-.61-2.57a45.16,45.16,0,0,0-5.21-12.49,46.75,46.75,0,0,0-11.93-13.31l-2-1.51c-.71-.47-1.46-.89-2.21-1.35s-1.47-1-2.28-1.32L319.51,95l-1.23-.59L317,94l-2.64-1c-.9-.3-1.83-.49-2.76-.74a24.35,24.35,0,0,0-2.84-.64,42.37,42.37,0,0,0-5.92-.69c-1,0-2-.13-3.06-.12l-3.1.16c-.51,0-1,0-1.56.1l-1.56.24c-1,.18-2.11.3-3.15.51a51.12,51.12,0,0,0-6.25,1.84l-1.55.57c-.26.09-.52.18-.78.29l-.75.36-3,1.46c-1,.54-1.93,1.16-2.91,1.74-.48.31-1,.57-1.45.92l-1.38,1a53.67,53.67,0,0,0-5.31,4.51c-.79.87-1.58,1.75-2.38,2.62l-.6.66-.54.71L262.39,110l-1.08,1.44-.94,1.54-.94,1.55-.47.78c-.14.27-.27.54-.4.82q-.8,1.64-1.59,3.3c-.42,1.15-.85,2.31-1.27,3.47a46.37,46.37,0,0,0,0,29.54c.43,1.16.85,2.32,1.27,3.47s1.07,2.21,1.59,3.3l.4.82.48.78.94,1.55.94,1.54,1.08,1.44,1.07,1.44.54.71.6.66c.79.88,1.59,1.75,2.38,2.62a52.46,52.46,0,0,0,5.31,4.52l1.38,1a16.77,16.77,0,0,0,1.45.91c1,.59,1.92,1.21,2.91,1.75l3,1.46.75.36c.26.11.52.19.78.29l1.55.57a49.35,49.35,0,0,0,6.25,1.83c1.05.22,2.11.34,3.15.51l1.56.24c.52.07,1,.07,1.57.11l3.1.16c1,0,2-.09,3.05-.12a42.69,42.69,0,0,0,5.93-.69,24.66,24.66,0,0,0,2.83-.64c.93-.25,1.87-.45,2.76-.74l2.64-1,1.3-.48,1.24-.58,2.43-1.17c.81-.37,1.53-.89,2.29-1.32s1.49-.89,2.2-1.36l2-1.51a46.83,46.83,0,0,0,11.92-13.3,45.08,45.08,0,0,0,5.21-12.5,26.26,26.26,0,0,0,.61-2.57l.36-2.29c.11-.71.24-1.36.3-2s.07-1.16.1-1.65c.06-1,.1-1.72.13-2.23s.07-.77.07-.77,0,.26,0,.77-.05,1.26-.09,2.24c0,.49-.05,1-.07,1.65s-.18,1.26-.27,2-.22,1.49-.34,2.31a26.11,26.11,0,0,1-.59,2.58,44.54,44.54,0,0,1-5.16,12.59,46.83,46.83,0,0,1-11.95,13.46l-2,1.52c-.71.48-1.47.91-2.21,1.38s-1.49,1-2.31,1.34l-2.45,1.18-1.24.6-1.31.48-2.66,1c-.9.3-1.85.49-2.78.75a24.91,24.91,0,0,1-2.87.66,44.87,44.87,0,0,1-6,.7c-1,0-2.05.14-3.09.13l-3.13-.16c-.52,0-1.05,0-1.58-.1l-1.58-.24c-1.05-.17-2.12-.29-3.18-.51a48.64,48.64,0,0,1-6.31-1.84l-1.57-.57c-.26-.1-.53-.19-.79-.3l-.76-.36-3.06-1.47c-1-.54-2-1.17-2.95-1.76-.48-.31-1-.57-1.46-.92l-1.4-1a53.53,53.53,0,0,1-5.37-4.56l-2.41-2.65-.6-.67-.55-.71L262,165.63l-1.09-1.46-1-1.56L259,161l-.48-.78-.4-.83c-.54-1.11-1.07-2.22-1.61-3.34l-1.29-3.5a46.87,46.87,0,0,1,0-29.88c.43-1.17.86-2.34,1.28-3.5s1.08-2.23,1.61-3.34c.14-.28.26-.56.41-.83l.47-.78,1-1.57.95-1.56,1.09-1.45,1.09-1.45.54-.72.61-.67c.8-.88,1.6-1.77,2.4-2.64A53.64,53.64,0,0,1,272,99.64l1.39-1c.46-.35,1-.62,1.46-.92,1-.59,1.95-1.22,2.95-1.76l3.06-1.47.76-.37.79-.29,1.57-.57a48.64,48.64,0,0,1,6.31-1.84c1.06-.22,2.13-.34,3.18-.52l1.58-.24c.53-.06,1.06-.06,1.58-.09l3.13-.16c1,0,2.06.09,3.08.13a43.24,43.24,0,0,1,6,.7,24.27,24.27,0,0,1,2.86.66c.94.25,1.88.45,2.79.75l2.65,1,1.31.48,1.25.59,2.45,1.19a26.06,26.06,0,0,1,2.3,1.34c.75.46,1.5.9,2.22,1.37l2,1.53a47.08,47.08,0,0,1,11.95,13.45,44.41,44.41,0,0,1,5.15,12.6,23.68,23.68,0,0,1,.6,2.58c.12.82.23,1.59.34,2.3s.21,1.37.27,2,.05,1.16.07,1.65c0,1,.07,1.72.09,2.24S347.17,137.65,347.17,137.65Z" style="fill:#263238"></path></g><g id="freepik--Table--inject-4"><path d="M600.89,481.87c0,.14-103.38.26-230.88.26s-230.9-.12-230.9-.26,103.36-.26,230.9-.26S600.89,481.73,600.89,481.87Z" style="fill:#263238"></path></g><g id="freepik--ADN--inject-4"><circle cx="609.38" cy="356.25" r="67.84" transform="matrix(0.96, -0.27, 0.27, 0.96, -73.69, 178.27)" style="fill:#fafafa"></circle><path d="M584.07,419.19l1,.36c.69.23,1.68.66,3,1.07a69.11,69.11,0,0,0,12.08,2.76,67.95,67.95,0,0,0,43.8-9,67.5,67.5,0,0,0,22.35-21.71,69.16,69.16,0,0,0,9.6-24.71,73.5,73.5,0,0,0,1-9.34,67.79,67.79,0,0,0-16.32-46.38,63.35,63.35,0,0,0-7.53-7.48,67.58,67.58,0,0,0-39.59-15.93,62.57,62.57,0,0,0-10.61.19,65.32,65.32,0,0,0-10.29,1.8A67.74,67.74,0,0,0,559,311.15a70.76,70.76,0,0,0-5.77,7.42A68.63,68.63,0,0,0,543.07,343a67.54,67.54,0,0,0,1.09,31.14,67.76,67.76,0,0,0,36,43.21c1.27.65,2.28,1,2.94,1.34l1,.46s-1.4-.52-4-1.71a66.21,66.21,0,0,1-10.7-6.29,67.89,67.89,0,0,1-25.59-36.91A67.92,67.92,0,0,1,542.65,343a69,69,0,0,1,10.21-24.65,71.74,71.74,0,0,1,5.8-7.48,68.17,68.17,0,0,1,33.84-20.54,67.2,67.2,0,0,1,10.36-1.82,64.69,64.69,0,0,1,10.7-.19,68.17,68.17,0,0,1,39.89,16.05,64.36,64.36,0,0,1,7.58,7.55,67.17,67.17,0,0,1,6.22,8.49,68.28,68.28,0,0,1,10.19,38.23,74.56,74.56,0,0,1-1,9.42,69.18,69.18,0,0,1-9.7,24.85,67.73,67.73,0,0,1-22.52,21.8,67.91,67.91,0,0,1-44,8.91,67.09,67.09,0,0,1-12.08-2.86C585.44,419.79,584.07,419.19,584.07,419.19Z" style="fill:#263238"></path><path d="M669.32,308.91l-7.15-15.4-10.31-.81s12,17.67,10.65,24.78l7.25-3.86Z" style="fill:#2669FD"></path><g style="opacity:0.30000000000000004"><path d="M669.32,308.91l-7.15-15.4-10.31-.81s12,17.67,10.65,24.78l7.25-3.86Z"></path></g><path d="M552.31,403.55a101.43,101.43,0,0,0,3.82,16.33l10,2.56s-8.8-19.46-6.25-26.23l-7,2.19Z" style="fill:#2669FD"></path><g style="opacity:0.30000000000000004"><path d="M552.31,403.55c.21,3.32,2,9.8,3.82,16.33l10,2.56s-8.8-19.46-6.25-26.23l-7,2.19Z"></path></g><path d="M625.54,285.45a18.92,18.92,0,0,0-1.12,13c3.14,11.85,26.32,41.08,24.81,49.33s-11.06,10.47-11.06,10.47,5.33-3.71,1.37-12.62-17.68-30.06-19.5-34.45c-1.95-4.7-5.88-9.62-3.47-17.29S625.54,285.45,625.54,285.45Z" style="fill:#2669FD"></path><path d="M603.9,320.76a18.92,18.92,0,0,0-1.12,13c3.14,11.85,26.32,41.08,24.82,49.33s-11.07,10.47-11.07,10.47,5.33-3.71,1.37-12.62-17.68-30.06-19.5-34.45c-1.94-4.7-5.87-9.61-3.47-17.29S603.9,320.76,603.9,320.76Z" style="fill:#2669FD"></path><path d="M583.76,355a19,19,0,0,0-1.13,13c3.15,11.86,26.33,41.08,24.82,49.33s-11.06,10.47-11.06,10.47,5.33-3.71,1.37-12.62-17.68-30.06-19.5-34.45c-2-4.7-5.88-9.61-3.47-17.29S583.76,355,583.76,355Z" style="fill:#2669FD"></path><g style="opacity:0.30000000000000004"><path d="M603.9,320.76a18.92,18.92,0,0,0-1.12,13c3.14,11.85,26.32,41.08,24.82,49.33s-11.07,10.47-11.07,10.47,5.33-3.71,1.37-12.62-17.68-30.06-19.5-34.45c-1.94-4.7-5.87-9.61-3.47-17.29S603.9,320.76,603.9,320.76Z"></path></g><g style="opacity:0.30000000000000004"><path d="M583.76,355a19,19,0,0,0-1.13,13c3.15,11.86,26.33,41.08,24.82,49.33s-11.06,10.47-11.06,10.47,5.33-3.71,1.37-12.62-17.68-30.06-19.5-34.45c-2-4.7-5.88-9.61-3.47-17.29S583.76,355,583.76,355Z"></path></g><rect x="576.2" y="381.48" width="34.91" height="3.78" rx="1.25" transform="translate(287.74 -253.67) rotate(31.5)" style="fill:#2669FD"></rect><rect x="571.22" y="373.72" width="54.38" height="3.78" rx="1.25" transform="translate(284.39 -257.29) rotate(31.5)" style="fill:#2669FD"></rect><rect x="577.79" y="365.6" width="45.5" height="3.78" rx="1.25" transform="translate(280.46 -259.6) rotate(31.5)" style="fill:#2669FD"></rect><rect x="592.59" y="358.37" width="26.67" height="3.78" rx="1.25" transform="translate(277.48 -263.48) rotate(31.5)" style="fill:#2669FD"></rect><path d="M604.56,361.84a7.38,7.38,0,0,1,.92-1.75,7.49,7.49,0,0,1,1.14-1.61,7.64,7.64,0,0,1-.92,1.74A8.09,8.09,0,0,1,604.56,361.84Z" style="fill:#263238"></path><g style="opacity:0.30000000000000004"><path d="M625.54,285.45a18.92,18.92,0,0,0-1.12,13c3.14,11.85,26.32,41.08,24.81,49.33s-11.06,10.47-11.06,10.47,5.33-3.71,1.37-12.62-17.68-30.06-19.5-34.45c-1.95-4.7-5.88-9.62-3.47-17.29S625.54,285.45,625.54,285.45Z"></path></g><rect x="616.33" y="309.16" width="34.91" height="3.78" rx="1.25" transform="translate(255.87 -285.29) rotate(31.5)" style="fill:#2669FD"></rect><rect x="614.61" y="302.9" width="54.38" height="3.78" rx="1.25" transform="translate(253.79 -290.4) rotate(31.5)" style="fill:#2669FD"></rect><rect x="621.67" y="293.98" width="45.5" height="3.78" rx="1.25" transform="translate(249.51 -293.08) rotate(31.5)" style="fill:#2669FD"></rect><rect x="568.02" y="396.73" width="34.91" height="3.78" rx="1.25" transform="translate(876.44 1044.38) rotate(-148.5)" style="fill:#2669FD"></rect><rect x="554.52" y="404.18" width="49.79" height="3.78" rx="1.25" transform="translate(861.32 1055.03) rotate(-148.5)" style="fill:#2669FD"></rect><rect x="550.35" y="412.42" width="50.65" height="3.78" rx="1.25" transform="translate(850.1 1068.34) rotate(-148.5)" style="fill:#2669FD"></rect><rect x="594.71" y="344.45" width="34.91" height="3.78" rx="1.25" transform="translate(271.12 -268.79) rotate(31.5)" style="fill:#2669FD"></rect><rect x="592.98" y="338.19" width="54.38" height="3.78" rx="1.25" transform="translate(269.04 -273.9) rotate(31.5)" style="fill:#2669FD"></rect><rect x="600.04" y="329.27" width="45.5" height="3.78" rx="1.25" transform="translate(264.76 -276.58) rotate(31.5)" style="fill:#2669FD"></rect><rect x="614.84" y="322.05" width="26.67" height="3.78" rx="1.25" transform="translate(261.78 -280.46) rotate(31.5)" style="fill:#2669FD"></rect><path d="M668.81,307.86s2.86,4.71-1,10.55-8.49,7.33-12.28,7.78c-14,1.65-43.28-7.66-52.94-1.69s-8.31,11.27-8.31,11.27-1.43-7.54,1.79-12.95c.64-1.06.88-1.6,1.48-2.51,2.44-3.72,6.07-6.08,11.56-6.56,6.8-.59,33.8,2.25,33.8,2.25s14.93,2.18,20.25-.71S668.81,307.86,668.81,307.86Z" style="fill:#2669FD"></path><path d="M615.89,300.08c3.8-18.08,30.25-11.83,30.25-11.83l4.31-9.33s-21.19-3.54-28.66,3.86a26.94,26.94,0,0,0-4.5,6.22,17.4,17.4,0,0,0-1.88,8.58,8.54,8.54,0,0,0,.35,2.07Z" style="fill:#2669FD"></path><path d="M607.15,414c-3.81,18.08-30.51,10.35-30.51,10.35l-4.3,9.32s20.26,2.48,28.66-3.86a21.83,21.83,0,0,0,4.91-5.69c2.59-4.11,1.6-6.75,1.24-10.12Z" style="fill:#2669FD"></path><path d="M648.84,344.16s2.71,4.44-1.14,10.28-8.49,7.33-12.28,7.78c-9.72,1.14-27-3.17-39.87-3.72-5.66-.24-10.3.51-13.26,2.34-9.67,6-7.83,10.76-7.83,10.76s-1.92-6.91,1.47-12.22c.56-.88.89-2,1.41-2.76,2.6-3.93,5.44-6,10.87-6.79,6.75-1,34.59,2.2,34.59,2.2s14.93,2.17,20.25-.71S648.84,344.16,648.84,344.16Z" style="fill:#2669FD"></path><path d="M627.33,379.25s2.72,4.44-1.14,10.28-8.49,7.34-12.28,7.78c-5.51.65-13.4-.23-21.54-1.42-5.63-.82-11.39-1.9-16.54-2.22s-9.79.12-13.05,1.31a12.84,12.84,0,0,0-2.15,1c-9.67,6-7.89,10.93-7.89,10.93s-1.5-5,1.14-11.65a21.74,21.74,0,0,1,2.1-3.73c2.52-3.74,5.21-6.08,10.72-6.58a44.16,44.16,0,0,1,5.66-.24c10.5.35,28.94,2.44,28.94,2.44s14.92,2.18,20.25-.71S627.33,379.25,627.33,379.25Z" style="fill:#2669FD"></path><path d="M644,297.94a7.59,7.59,0,0,1,.92-1.75,6.77,6.77,0,0,1,1.14-1.61,7.64,7.64,0,0,1-.92,1.74A8.09,8.09,0,0,1,644,297.94Z" style="fill:#263238"></path><path d="M639.29,305.65a7.59,7.59,0,0,1,.92-1.75,8.19,8.19,0,0,1,1.14-1.61,7.59,7.59,0,0,1-.92,1.75A7.49,7.49,0,0,1,639.29,305.65Z" style="fill:#263238"></path><path d="M634.27,313.84a7.59,7.59,0,0,1,.92-1.75,7.49,7.49,0,0,1,1.14-1.61,7.59,7.59,0,0,1-.92,1.75A7.49,7.49,0,0,1,634.27,313.84Z" style="fill:#263238"></path><path d="M622.13,333.16a7.59,7.59,0,0,1,.92-1.75,7.83,7.83,0,0,1,1.14-1.61,7.59,7.59,0,0,1-.92,1.75A7.49,7.49,0,0,1,622.13,333.16Z" style="fill:#263238"></path><path d="M617.84,340.67a7.31,7.31,0,0,1,.91-1.75,7.49,7.49,0,0,1,1.14-1.61,14.45,14.45,0,0,1-2,3.36Z" style="fill:#263238"></path><path d="M612.8,349a7.59,7.59,0,0,1,.92-1.75,7.83,7.83,0,0,1,1.14-1.61,7.59,7.59,0,0,1-.92,1.75A7.49,7.49,0,0,1,612.8,349Z" style="fill:#263238"></path><path d="M599.92,369.42a7.78,7.78,0,0,1,.91-1.75,7.49,7.49,0,0,1,1.14-1.61,7.31,7.31,0,0,1-.91,1.75A7.83,7.83,0,0,1,599.92,369.42Z" style="fill:#263238"></path><path d="M596,376.45a7.31,7.31,0,0,1,.91-1.75,7.49,7.49,0,0,1,1.14-1.61,7.78,7.78,0,0,1-.91,1.75A7.49,7.49,0,0,1,596,376.45Z" style="fill:#263238"></path><path d="M591.85,384.57a7.31,7.31,0,0,1,.91-1.75,7.49,7.49,0,0,1,1.14-1.61A7.31,7.31,0,0,1,593,383,8.19,8.19,0,0,1,591.85,384.57Z" style="fill:#2669FD"></path><path d="M577.56,407.24a7.64,7.64,0,0,1,.92-1.74,7.11,7.11,0,0,1,1.14-1.61,7.64,7.64,0,0,1-.92,1.74A7.49,7.49,0,0,1,577.56,407.24Z" style="fill:#263238"></path><path d="M583.41,399.55a7.59,7.59,0,0,1,.92-1.75,7.49,7.49,0,0,1,1.14-1.61,7.59,7.59,0,0,1-.92,1.75A8.19,8.19,0,0,1,583.41,399.55Z" style="fill:#263238"></path><path d="M573.16,415.07a7.15,7.15,0,0,1,.91-1.74,8.09,8.09,0,0,1,1.14-1.62,7.78,7.78,0,0,1-.91,1.75A7.49,7.49,0,0,1,573.16,415.07Z" style="fill:#263238"></path><path d="M655.75,316.78a1.11,1.11,0,0,1-.21,0h-.61c-.54,0-1.33,0-2.36-.09-2-.09-5-.27-8.63-.56-7.29-.55-17.32-1.64-28.46-2.15a39.08,39.08,0,0,0-8.1,0,13.54,13.54,0,0,0-6.74,3.07,17.46,17.46,0,0,0-2.43,2.52,21.68,21.68,0,0,0-1.78,2.78,24,24,0,0,0-2.07,5.57,17,17,0,0,0-.44,4.86,21.37,21.37,0,0,0,.52,3.67c.22,1,.43,1.76.57,2.28l.16.59a.87.87,0,0,1,0,.21s0-.07-.07-.2-.1-.33-.18-.58c-.15-.52-.39-1.28-.62-2.27a22.15,22.15,0,0,1-.57-3.69,17.32,17.32,0,0,1,.41-4.92,23.67,23.67,0,0,1,2.06-5.62,22.16,22.16,0,0,1,1.79-2.82,16.86,16.86,0,0,1,2.45-2.56,13.66,13.66,0,0,1,6.87-3.14,38.79,38.79,0,0,1,8.14-.05c11.14.51,21.19,1.63,28.46,2.23,3.64.31,6.59.52,8.63.64l2.35.14.61,0Z" style="fill:#263238"></path><path d="M658.16,325.7l-.15.05-.46.12-.75.19-1,.17a39.69,39.69,0,0,1-6.7.27c-5.67-.16-13.42-1.26-21.95-2.56A107.5,107.5,0,0,0,615,322.59a28.74,28.74,0,0,0-9.79,1.08,17.06,17.06,0,0,0-5.84,3.12,9.94,9.94,0,0,0-.79.7c-.22.2-.41.38-.55.53l-.33.34c-.07.08-.11.12-.12.11a12.46,12.46,0,0,1,1.72-1.76,16.92,16.92,0,0,1,5.86-3.22,28.52,28.52,0,0,1,9.85-1.14,103.15,103.15,0,0,1,12.11,1.34c8.53,1.3,16.27,2.42,21.92,2.62a41.35,41.35,0,0,0,6.68-.18l1-.14.75-.17.46-.09Z" style="fill:#263238"></path><path d="M664.93,321.91s.06-.09.21-.24l.63-.66a16.58,16.58,0,0,0,2-2.63,14.62,14.62,0,0,0,1.77-4.56,8.35,8.35,0,0,0,0-2.87,15.54,15.54,0,0,0-.89-3c-1.51-4-3.57-7.37-4.52-10-.53-1.31-.94-2.38-1.27-3.09a6.23,6.23,0,0,0-.41-.8c-.11-.18-.2-.24-.19-.25s0,0,.07,0a.76.76,0,0,1,.16.18,4.73,4.73,0,0,1,.46.79c.36.7.8,1.76,1.35,3.06,1,2.64,3.07,6,4.6,10a15.38,15.38,0,0,1,.89,3,8.31,8.31,0,0,1-.06,2.95,14.24,14.24,0,0,1-1.85,4.62,15.33,15.33,0,0,1-2.1,2.6c-.28.28-.51.49-.66.63Z" style="fill:#263238"></path><path d="M635.73,352.79h-.82c-.55,0-1.35,0-2.37-.08-2.06-.07-5-.24-8.71-.54s-8-.74-12.88-1.21-10.17-.92-15.78-1.16a34.94,34.94,0,0,0-8.15.26,13.75,13.75,0,0,0-6.71,3.3,17.94,17.94,0,0,0-4.1,5.45,20.81,20.81,0,0,0-1.93,5.65,14.69,14.69,0,0,0-.16,2.6,18.11,18.11,0,0,0,.22,2.32,35.42,35.42,0,0,0,.85,3.65c.29,1,.51,1.74.66,2.27l.17.6a1.47,1.47,0,0,1,.05.2s0-.06-.07-.2l-.2-.58c-.16-.52-.41-1.28-.7-2.26a31.93,31.93,0,0,1-.9-3.65,18.44,18.44,0,0,1-.25-2.34,15.09,15.09,0,0,1,.15-2.64,17.28,17.28,0,0,1,.71-2.81,23.44,23.44,0,0,1,1.2-2.9,18.26,18.26,0,0,1,4.14-5.54,14,14,0,0,1,6.82-3.37,35,35,0,0,1,8.21-.27c5.61.24,11,.7,15.8,1.18s9.2,1,12.87,1.27,6.63.51,8.69.62l2.37.12.61,0Z" style="fill:#263238"></path><path d="M638.15,361.71s0,0-.15.05l-.46.13-.75.18-1,.17a39.74,39.74,0,0,1-6.7.27c-5.67-.16-13.43-1.25-22-2.56A107.33,107.33,0,0,0,595,358.6a28.71,28.71,0,0,0-9.79,1.08,17.22,17.22,0,0,0-5.85,3.12c-.31.25-.56.49-.78.7a5.7,5.7,0,0,0-.55.54l-.33.34-.12.11a11.83,11.83,0,0,1,1.72-1.76,16.75,16.75,0,0,1,5.85-3.23,28.58,28.58,0,0,1,9.86-1.14,102.76,102.76,0,0,1,12.1,1.34c8.53,1.3,16.27,2.42,21.93,2.62a41.18,41.18,0,0,0,6.67-.18l1-.14.75-.17.47-.09Z" style="fill:#263238"></path><path d="M644.91,357.92a2.12,2.12,0,0,1,.22-.25l.65-.67a16.1,16.1,0,0,0,2.07-2.74,13.88,13.88,0,0,0,1.74-4.74,8.29,8.29,0,0,0-.08-3,20.19,20.19,0,0,0-1-3.06c-.8-2.07-1.63-4-2.45-5.76s-1.7-3.24-2.4-4.52l-1.69-3-.46-.82-.07-.12,0-.05h0s0,0,0,0h0v0l0,.08-.05-.07v0h0s0,0,0,0h0v0l0,0,.08.12c.12.18.29.45.5.8.43.69,1,1.71,1.77,3s1.61,2.76,2.45,4.5,1.68,3.7,2.48,5.78a20.37,20.37,0,0,1,1,3.1,8.49,8.49,0,0,1,.07,3.05,13.91,13.91,0,0,1-1.82,4.8,14.78,14.78,0,0,1-2.16,2.72c-.29.28-.52.5-.68.64A2,2,0,0,1,644.91,357.92Z" style="fill:#263238"></path><path d="M614.11,388h-.82c-.54,0-1.33,0-2.36-.07-2-.08-5-.24-8.64-.53s-8-.73-12.78-1.2-10.09-.93-15.66-1.16a38.21,38.21,0,0,0-8.1.17,13.79,13.79,0,0,0-6.74,3.09,16.54,16.54,0,0,0-2.43,2.53,21.09,21.09,0,0,0-1.79,2.78,23.89,23.89,0,0,0-2.07,5.56,17.05,17.05,0,0,0-.44,4.87,21.37,21.37,0,0,0,.52,3.67c.22,1,.43,1.76.57,2.28l.16.59c0,.14.05.2.05.21a1.08,1.08,0,0,1-.08-.2c0-.14-.1-.34-.18-.58-.15-.52-.38-1.28-.62-2.28a22,22,0,0,1-.57-3.68,17.32,17.32,0,0,1,.41-4.92,24,24,0,0,1,2.06-5.62,20.56,20.56,0,0,1,1.8-2.82,17.41,17.41,0,0,1,2.45-2.57,14.07,14.07,0,0,1,6.86-3.16,38.07,38.07,0,0,1,8.15-.18c5.57.23,10.87.7,15.68,1.18s9.13.94,12.77,1.25,6.59.51,8.63.62l2.35.12.61,0Z" style="fill:#263238"></path><path d="M616.52,396.9l-.15.05-.46.12-.75.19-1,.17a38.76,38.76,0,0,1-6.69.26c-5.67-.15-13.43-1.25-22-2.55a110.12,110.12,0,0,0-12.07-1.36,29,29,0,0,0-9.8,1.09,16.89,16.89,0,0,0-5.84,3.12c-.31.25-.57.48-.79.69s-.41.39-.55.54-.24.26-.33.34l-.11.11a12.66,12.66,0,0,1,1.71-1.76,16.92,16.92,0,0,1,5.86-3.22,28.52,28.52,0,0,1,9.85-1.14,105.21,105.21,0,0,1,12.11,1.33c8.53,1.31,16.27,2.43,21.92,2.63a41.31,41.31,0,0,0,6.68-.18l1-.15.75-.16.46-.1Z" style="fill:#263238"></path><path d="M623.29,393.1a1.59,1.59,0,0,1,.22-.24c.16-.18.38-.4.65-.68a16.93,16.93,0,0,0,2.07-2.73A14.23,14.23,0,0,0,628,384.7a8.24,8.24,0,0,0-.09-3,20.91,20.91,0,0,0-1-3.06c-.81-2.08-1.63-4-2.46-5.77s-1.69-3.24-2.4-4.51-1.27-2.28-1.69-3l-.46-.82-.06-.13,0-.05h0s0,0,0,0h0v0l0,.07s0,0-.06-.06v0h0s0,0,0,0h0l0,.05.08.12.5.79c.43.7,1,1.71,1.76,3s1.62,2.77,2.46,4.51,1.67,3.69,2.48,5.77a19.7,19.7,0,0,1,1,3.11,8.28,8.28,0,0,1,.08,3.05,13.71,13.71,0,0,1-1.83,4.8,15.1,15.1,0,0,1-2.15,2.71c-.29.29-.52.51-.69.65A1.47,1.47,0,0,1,623.29,393.1Z" style="fill:#263238"></path></g><g id="freepik--blood-cells--inject-4"><circle cx="126.07" cy="102.48" r="65.63" transform="translate(-31.57 63.18) rotate(-25.11)" style="fill:#fafafa"></circle><path d="M187,127s.11-.35.35-1,.63-1.63,1-2.95A67.13,67.13,0,0,0,191,111.33,65.67,65.67,0,0,0,182.27,69a65.1,65.1,0,0,0-21-21.62A65.28,65.28,0,0,0,146,40.19a66.55,66.55,0,0,0-8.59-2.13,70.61,70.61,0,0,0-9-1,65.48,65.48,0,0,0-36.71,9.82,64.21,64.21,0,0,0-8.15,6,60.73,60.73,0,0,0-7.24,7.28A65.43,65.43,0,0,0,60.82,98.47,61.72,61.72,0,0,0,61,108.74a64.5,64.5,0,0,0,1.75,10A65.52,65.52,0,0,0,82.44,151.2a71.33,71.33,0,0,0,7.18,5.58,67.1,67.1,0,0,0,7.67,4.41,65.34,65.34,0,0,0,16,5.43,65.39,65.39,0,0,0,30.12-1.05,65.47,65.47,0,0,0,41.8-34.8c.63-1.22,1-2.2,1.3-2.84s.45-1,.45-1-.5,1.35-1.65,3.85a65.06,65.06,0,0,1-6.09,10.35,65.69,65.69,0,0,1-35.71,24.76,65.57,65.57,0,0,1-30.3,1.12,65.68,65.68,0,0,1-16.12-5.45,64.43,64.43,0,0,1-7.73-4.44,69.51,69.51,0,0,1-7.24-5.61,65.93,65.93,0,0,1-21.63-42.76,61.59,61.59,0,0,1-.18-10.35,65.91,65.91,0,0,1,15.53-38.6,61.56,61.56,0,0,1,7.29-7.33,64.33,64.33,0,0,1,8.22-6,66.06,66.06,0,0,1,37-9.86,69.74,69.74,0,0,1,9.11,1,64.34,64.34,0,0,1,8.65,2.16A65.38,65.38,0,0,1,161.5,47a65.68,65.68,0,0,1,21.09,21.79,66.64,66.64,0,0,1,8.48,23.61,64.74,64.74,0,0,1-2.63,30.67C187.54,125.64,187,127,187,127Z" style="fill:#263238"></path><ellipse cx="113.83" cy="80.91" rx="26.24" ry="23.84" transform="translate(-25.71 75.24) rotate(-33.08)" style="fill:#2669FD"></ellipse><g style="opacity:0.30000000000000004"><path d="M104.78,93.73c6,1.9,9.51,1.26,13.61-.49a20.47,20.47,0,0,0,9.76-8.8c.81-1.44,1.38-3.39.29-4.64s-2.85-1-4.08-.15a11.89,11.89,0,0,0-2.84,3.41,16.58,16.58,0,0,1-5.16,5.15,9,9,0,0,1-7.06,1.05c-1.59-.49-3.18-1.55-4.78-1.08a2.76,2.76,0,0,0-1.93,2.63,3.38,3.38,0,0,0,2.19,2.92"></path></g><g style="opacity:0.1"><path d="M114.7,71.37a7.38,7.38,0,0,0,4.57-2,3.13,3.13,0,0,0-.22-4.45l-.06,0a7.51,7.51,0,0,0-2.45-1.05c-5.71-1.3-11.33,1.3-15.62,5.58a7.52,7.52,0,0,0-1.85,2.66,3.44,3.44,0,0,0,.31,3.12c1.16,1.62,3.69,1.42,5.42.45s3.12-2.53,5-3.33A19.15,19.15,0,0,1,114.7,71.37Z" style="fill:#fff"></path></g><path d="M129,72.74a1.63,1.63,0,0,1,.18.48,13.77,13.77,0,0,1,.34,1.44,15.38,15.38,0,0,1,0,5.44,17,17,0,0,1-3.23,7.38,20.42,20.42,0,0,1-7.63,6.24A15.89,15.89,0,0,1,109,95.07,15.66,15.66,0,0,1,101.53,92,13.83,13.83,0,0,1,98,87.88a9.61,9.61,0,0,1-.65-1.33,1.5,1.5,0,0,1-.18-.48s.33.63,1,1.71a14.39,14.39,0,0,0,3.58,3.94,15.61,15.61,0,0,0,7.29,2.88,16.46,16.46,0,0,0,4.66.08,16,16,0,0,0,4.78-1.43A20.41,20.41,0,0,0,126,87.19,17.07,17.07,0,0,0,129.21,80a16.64,16.64,0,0,0,.14-5.34C129.18,73.43,129,72.75,129,72.74Z" style="fill:#263238"></path><path d="M128.65,86.83c-.09,0,.68-1.18,1.46-3.21a18.34,18.34,0,0,0-1.48-16.22c-1.13-1.86-2.09-2.83-2-2.89a3.11,3.11,0,0,1,.72.64,15.12,15.12,0,0,1,1.61,2,17.56,17.56,0,0,1,1.51,16.56,14.91,14.91,0,0,1-1.22,2.31A3.19,3.19,0,0,1,128.65,86.83Z" style="fill:#fff"></path><path d="M122.05,93.53a15.22,15.22,0,0,1,2.23-1.67,14.36,14.36,0,0,1,2.25-1.64,5.37,5.37,0,0,1-1.94,2.06A5.32,5.32,0,0,1,122.05,93.53Z" style="fill:#fff"></path><path d="M97.13,71.78s.11-.26.38-.69a14.52,14.52,0,0,1,1.31-1.73,21.85,21.85,0,0,1,12.12-7.12,14.64,14.64,0,0,1,2.14-.3c.51,0,.79,0,.79,0s-1.1.21-2.85.65a24.6,24.6,0,0,0-11.93,7C97.86,70.92,97.21,71.84,97.13,71.78Z" style="fill:#fff"></path><path d="M139.94,121.36c-4.06-10.58.45-22.14,10.06-25.83s20.7,1.9,24.76,12.48-.45,22.14-10.06,25.83S144,131.94,139.94,121.36Z" style="fill:#2669FD"></path><g style="opacity:0.30000000000000004"><path d="M149,105.66c-2.45,4.31-2.53,7.07-1.86,10.49a16,16,0,0,0,5.13,8.91c1,.85,2.37,1.61,3.5,1a2.5,2.5,0,0,0,.78-3.1,9.21,9.21,0,0,0-2.14-2.73,13,13,0,0,1-3.09-4.79,7,7,0,0,1,.36-5.57c.63-1.13,1.7-2.17,1.61-3.47a2.17,2.17,0,0,0-1.7-1.91,2.64,2.64,0,0,0-2.59,1.19"></path></g><g style="opacity:0.1"><path d="M164.49,116.92a5.83,5.83,0,0,0,.76,3.81,2.45,2.45,0,0,0,3.44.56l0,0a5.64,5.64,0,0,0,1.2-1.7c1.93-4.15.86-8.88-1.71-12.86a5.64,5.64,0,0,0-1.73-1.84,2.67,2.67,0,0,0-2.43-.28c-1.43.62-1.7,2.59-1.23,4.07s1.42,2.8,1.73,4.33A14.54,14.54,0,0,1,164.49,116.92Z" style="fill:#fff"></path></g><path d="M161.11,127.65a1.1,1.1,0,0,1-.4.06,7.6,7.6,0,0,1-1.16,0,12.09,12.09,0,0,1-4.18-.86,13.29,13.29,0,0,1-5.13-3.68,15.93,15.93,0,0,1-3.54-6.88,12.44,12.44,0,0,1,.56-7.69,12.35,12.35,0,0,1,3.59-5.21,11,11,0,0,1,3.75-2,6.71,6.71,0,0,1,1.13-.27c.26-.05.4-.07.4-.05s-.53.16-1.46.51a11.59,11.59,0,0,0-3.59,2.1,12.33,12.33,0,0,0-3.37,5.1,13,13,0,0,0-.82,3.53,12.5,12.5,0,0,0,.32,3.87,15.71,15.71,0,0,0,3.39,6.69,13.38,13.38,0,0,0,4.91,3.65,13.05,13.05,0,0,0,4.05,1C160.55,127.63,161.1,127.6,161.11,127.65Z" style="fill:#263238"></path><path d="M150.39,125c.07-.06.81.7,2.24,1.61a14.58,14.58,0,0,0,6.13,2.22,14.83,14.83,0,0,0,6.48-.69c1.6-.55,2.51-1.11,2.55-1s-.19.2-.59.46a11.41,11.41,0,0,1-1.83.91,13.62,13.62,0,0,1-13-1.56,12.31,12.31,0,0,1-1.56-1.33C150.53,125.28,150.37,125.07,150.39,125Z" style="fill:#fff"></path><path d="M146.35,118.91c.14,0,.47.87,1,2s1,1.92.84,2-.8-.67-1.31-1.8S146.21,118.93,146.35,118.91Z" style="fill:#fff"></path><path d="M167.06,103.41a6.9,6.9,0,0,1,1.61,1.66,17.2,17.2,0,0,1,2.61,4.94,17,17,0,0,1,.86,5.52,6.85,6.85,0,0,1-.3,2.3,26.1,26.1,0,0,0-1.06-7.65A25.58,25.58,0,0,0,167.06,103.41Z" style="fill:#fff"></path><path d="M111.44,144.2c-6.56,2.21-13.28-.14-15-5.25s2.2-11,8.76-13.26,13.28.14,15,5.26S118,142,111.44,144.2Z" style="fill:#2669FD"></path><g style="opacity:0.30000000000000004"><path d="M102.47,139.42a8.56,8.56,0,0,0,6.21,1,11.23,11.23,0,0,0,5.61-2.77c.56-.53,1.09-1.27.77-1.88a1.52,1.52,0,0,0-1.82-.4,6.39,6.39,0,0,0-1.75,1.15,8.78,8.78,0,0,1-3,1.67,4.6,4.6,0,0,1-3.32-.16c-.65-.34-1.22-.9-2-.85a1.44,1.44,0,0,0-1.23.92,1.21,1.21,0,0,0,.58,1.37"></path></g><g style="opacity:0.1"><path d="M110,131.13a4.13,4.13,0,0,0,2.33-.42,1.28,1.28,0,0,0,.51-1.84l0,0a3.1,3.1,0,0,0-1-.64c-2.39-1-5.28-.42-7.8,1a3.72,3.72,0,0,0-1.2.93,1.34,1.34,0,0,0-.29,1.3c.3.76,1.46.89,2.38.64s1.75-.77,2.69-.94A9.32,9.32,0,0,1,110,131.13Z" style="fill:#fff"></path></g><path d="M116.29,132.89a2,2,0,0,1,0,.9,6.48,6.48,0,0,1-.77,2.34,10.1,10.1,0,0,1-6.53,4.56,8.35,8.35,0,0,1-4.48-.11,7.06,7.06,0,0,1-3.16-1.85,4.84,4.84,0,0,1-1.17-2.18,2.21,2.21,0,0,1-.1-.9,5.11,5.11,0,0,1,.29.84,5.16,5.16,0,0,0,1.24,2,7,7,0,0,0,3,1.65,8.15,8.15,0,0,0,4.23.07,10.16,10.16,0,0,0,6.33-4.25A8.86,8.86,0,0,0,116.29,132.89Z" style="fill:#263238"></path><path d="M114.18,138.61c-.05-.06.38-.45,1-1.18a8.81,8.81,0,0,0,1.62-3.15,7.15,7.15,0,0,0,0-3.51,11.69,11.69,0,0,1-.44-1.45,2.88,2.88,0,0,1,.79,1.34,6.34,6.34,0,0,1,.13,3.75,7.35,7.35,0,0,1-1.85,3.26C114.74,138.37,114.22,138.66,114.18,138.61Z" style="fill:#fff"></path><path d="M110.29,140.8c0-.15.51-.38,1.17-.64s1.22-.46,1.3-.34-.39.54-1.1.82S110.32,140.93,110.29,140.8Z" style="fill:#fff"></path><path d="M102.05,129.81a10.07,10.07,0,0,1,8.9-2.61,30.12,30.12,0,0,0-4.63.72A30.53,30.53,0,0,0,102.05,129.81Z" style="fill:#fff"></path></g><g id="freepik--character-3--inject-4"><circle cx="596.78" cy="142.95" r="111.13" style="fill:#fafafa"></circle><path d="M633.42,127.43s-8.35,13.53-9.22,15.25-.29,10-.29,10l-4.58,6.17,8.67,13L636.28,158s4.27-2.85,5.59-5,8.64-16.18,8.64-16.18l.08-7s.73-2.71-1.47-3.06a2.47,2.47,0,0,0-2.79,1.78s2.88-3.78.94-5.41-3.14-.16-3.8.73-3.38,3.51-3.38,3.51,3-4.41,2.49-5.36-1.28-1.33-2.62-.85a5.42,5.42,0,0,0-3.39,2.71c-1,1.73-2.18,3.61-2.18,3.61Z" style="fill:#ffbf9d"></path><path d="M634.76,151.19s0-.09.09-.24.17-.4.28-.67a8.7,8.7,0,0,0,.54-2.59c0-.28,0-.58,0-.88s-.07-.62-.11-.95a9.65,9.65,0,0,0-.61-2,8.89,8.89,0,0,0-1.14-2,7,7,0,0,0-1.78-1.73l-.13-.08.1-.12.28-.32a16.58,16.58,0,0,0,2.43-4.37,14.44,14.44,0,0,0,.7-2.07,7,7,0,0,0,.16-1.89,5.36,5.36,0,0,0-.79-2.6c-.35-.55-.63-.79-.61-.81s.08,0,.21.17a3.69,3.69,0,0,1,.49.58,5.4,5.4,0,0,1,.88,2.65,6.91,6.91,0,0,1-.13,1.94,13,13,0,0,1-.69,2.11,16.12,16.12,0,0,1-2.45,4.45l-.29.33,0-.19a6.86,6.86,0,0,1,1.84,1.8,9.35,9.35,0,0,1,1.16,2.08,9.59,9.59,0,0,1,.6,2.07c0,.34.08.66.1,1s0,.61,0,.9a8.66,8.66,0,0,1-.62,2.62l-.34.65A1,1,0,0,1,634.76,151.19Z" style="fill:#ff9a6c"></path><path d="M620.43,154.18,605,176.58,595,149.39,579.65,194s14.9,15,25,17.59,12.72-2.58,14.81-8.45c1.26-3.53,19.47-35.41,19.47-35.41Z" style="fill:#e0e0e0"></path><path d="M605.58,175.74a2,2,0,0,1-.08.23l-.28.65c-.12.28-.27.63-.42,1s-.35.86-.52,1.38a38,38,0,0,0-1.13,3.66A39,39,0,0,0,602,192c0,1.44,0,2.74.15,3.83,0,.54.11,1,.16,1.46s.1.81.14,1.11l.1.7a.87.87,0,0,1,0,.24,1,1,0,0,1-.07-.24l-.15-.69c-.06-.3-.13-.66-.19-1.1s-.15-.92-.19-1.46a33,33,0,0,1-.21-3.85,37.83,37.83,0,0,1,.3-4.71,39.75,39.75,0,0,1,.91-4.64A36.19,36.19,0,0,1,604.1,179c.19-.52.4-1,.57-1.37a10.53,10.53,0,0,1,.46-1l.32-.63C605.53,175.81,605.57,175.73,605.58,175.74Z" style="fill:#263238"></path><polygon points="635.45 140.36 629.21 141.09 628.22 142.34 628.73 146.24 630.04 147.25 636.04 146.15 635.45 140.36" style="fill:#263238"></polygon><path d="M629.27,141a19.57,19.57,0,0,0,.31,3,18.1,18.1,0,0,0,.54,3,36.09,36.09,0,0,0-.85-6Z" style="fill:#455a64"></path><path d="M631.07,147a18.73,18.73,0,0,0-.35-3,21,21,0,0,0-.6-3,18.79,18.79,0,0,0,.35,3A20.62,20.62,0,0,0,631.07,147Z" style="fill:#455a64"></path><path d="M641.45,150.14c0,.36-4,6.06-4,6.06h-3.64l-1.41-1-.61-3.54,4.35-5.65Z" style="fill:#263238"></path><path d="M631.8,151.64a6.27,6.27,0,0,0,.85.65c.54.39,1.27.93,2.05,1.57,1.57,1.28,2.75,2.42,2.8,2.36a4,4,0,0,0-.71-.8,25.17,25.17,0,0,0-1.93-1.75,20.93,20.93,0,0,0-2.11-1.52A5,5,0,0,0,631.8,151.64Z" style="fill:#455a64"></path><path d="M632.22,151.09c0,.07,1.45.77,3,2a28.4,28.4,0,0,1,2.6,2.53,3.79,3.79,0,0,0-.6-.89,12.18,12.18,0,0,0-1.84-1.83,13.5,13.5,0,0,0-2.17-1.43A4,4,0,0,0,632.22,151.09Z" style="fill:#455a64"></path><rect x="641.83" y="149.62" width="6.7" height="9.13" style="fill:#263238"></rect><path d="M641.74,157.72a46.4,46.4,0,0,0,6.67,0,46.4,46.4,0,0,0-6.67,0Z" style="fill:#455a64"></path><path d="M641.69,156.9a46.4,46.4,0,0,0,6.67,0,46.4,46.4,0,0,0-6.67,0Z" style="fill:#455a64"></path><path d="M651.83,147.06a9.2,9.2,0,0,1-16.72-6.65l3.54,2.31Z" style="fill:#ebebeb"></path><path d="M668.81,184.08h-9v-8.81H640.85a2.23,2.23,0,0,1-2.23-2.24h0a2.23,2.23,0,0,1,2.23-2.23h11.06v-3H632a2.17,2.17,0,0,1-2.17-2.17h0a2.17,2.17,0,0,1,2.17-2.17h33v3.42h3.68Z" style="fill:#263238"></path><path d="M664.93,163.43c0,6.92,0,13.73,0,20.65" style="fill:#263238"></path><path d="M665,184.08c.06,0,.11-4.62.11-10.32s-.07-10.33-.14-10.33-.12,4.62-.11,10.33S664.89,184.08,665,184.08Z" style="fill:#455a64"></path><path d="M659.83,163.73c-.07,0-.12,2.61-.12,5.83s0,5.82.12,5.82.12-2.6.12-5.82S659.9,163.73,659.83,163.73Z" style="fill:#455a64"></path><path d="M629.8,201.59a11.29,11.29,0,0,1,9.14-7.89h30l.66,8.42Z" style="fill:#ebebeb"></path><path d="M684.65,181.72v-34a2.36,2.36,0,0,0-1.83-2.3l-28.17-8-.27-11.15L637.54,126l-5.21-4.78-8.22,9.38h0L635,142.47l33.43,10.37.56,48.75H629.88a1.72,1.72,0,0,0-1.72,1.73v6.37h56.49Z" style="fill:#455a64"></path><rect x="633.22" y="160.46" width="18.18" height="2.96" rx="1.43" style="fill:#e0e0e0"></rect><path d="M634.65,163.43s-.15,0-.4-.08a1.43,1.43,0,0,1-1-1.51,1.37,1.37,0,0,1,1.32-1.3h1.28l14.08,0a1.31,1.31,0,0,1,1.3,1.11,1.53,1.53,0,0,1-.13.9,1.33,1.33,0,0,1-.64.6,2.1,2.1,0,0,1-.91.11h-2.77l-6.33,0-4.27,0-1.16,0a2.12,2.12,0,0,0-.4,0l.4,0,1.16,0,4.27,0,6.33,0h2.77a2.34,2.34,0,0,0,1-.13,1.54,1.54,0,0,0,.76-.71,1.7,1.7,0,0,0,.16-1,1.56,1.56,0,0,0-1.54-1.33l-14.08,0H634.6a1.5,1.5,0,0,0-1.44,1.45,1.57,1.57,0,0,0,.17.83,1.44,1.44,0,0,0,.91.72A1,1,0,0,0,634.65,163.43Z" style="fill:#263238"></path><circle cx="676.82" cy="181.43" r="8.73" transform="translate(251.41 738.24) rotate(-67.63)" style="fill:#263238"></circle><path d="M672,181.72s0-.44.2-1.18a4.85,4.85,0,0,1,1.77-2.61,4.74,4.74,0,0,1,4.5-.66,4.46,4.46,0,0,1,1.19.65,4.31,4.31,0,0,1,1,1,4.71,4.71,0,0,1,0,5.59,4.36,4.36,0,0,1-1,1,4.46,4.46,0,0,1-1.19.65,4.88,4.88,0,0,1-2.49.21,4.8,4.8,0,0,1-2-.88,4.85,4.85,0,0,1-1.77-2.61c-.19-.74-.16-1.18-.2-1.17a3.7,3.7,0,0,0,.11,1.19,4.9,4.9,0,0,0,3.83,3.67,4.87,4.87,0,0,0,2.6-.2,4.64,4.64,0,0,0,1.26-.67,4.41,4.41,0,0,0,1.05-1.06,4.93,4.93,0,0,0,0-5.87,4.36,4.36,0,0,0-1.05-1.05,4.64,4.64,0,0,0-1.26-.67,5,5,0,0,0-2.6-.21,4.88,4.88,0,0,0-2.07.94,4.79,4.79,0,0,0-1.76,2.73A3.75,3.75,0,0,0,672,181.72Z" style="fill:#455a64"></path><polygon points="634.99 122.45 624.99 133.34 621.49 129.76 631.43 119.16 634.99 122.45" style="fill:#263238"></polygon><path d="M619.75,112.78l4.57,4.36a.79.79,0,0,1,0,1.1l-3.89,4.12a.78.78,0,0,1-1.12,0l-4.62-4.56a.78.78,0,0,1,0-1.11l3.94-3.91A.78.78,0,0,1,619.75,112.78Z" style="fill:#263238"></path><path d="M624,118.07c.11.16,5.11,5,5.11,5l-4,4.06-5-5Z" style="fill:#263238"></path><polygon points="623.11 212.27 683.64 212.27 685.64 209.69 623.11 209.69 623.11 212.27" style="fill:#263238"></polygon><rect x="638.94" y="186.57" width="15.44" height="7.13" transform="translate(1293.32 380.26) rotate(180)" style="fill:#455a64"></rect><path d="M652.71,193.7a51.83,51.83,0,0,0,0-7,47.86,47.86,0,0,0,0,7Z" style="fill:#263238"></path><path d="M650.12,193.7a47.86,47.86,0,0,0,0-7,51.83,51.83,0,0,0,0,7Z" style="fill:#263238"></path><path d="M647.54,193.7a51.83,51.83,0,0,0,0-7,51.83,51.83,0,0,0,0,7Z" style="fill:#263238"></path><path d="M645,193.7a51.83,51.83,0,0,0,0-7,51.83,51.83,0,0,0,0,7Z" style="fill:#263238"></path><path d="M642.38,193.7a51.83,51.83,0,0,0,0-7,51.83,51.83,0,0,0,0,7Z" style="fill:#263238"></path><path d="M639.8,193.7a51.83,51.83,0,0,0,0-7,47.86,47.86,0,0,0,0,7Z" style="fill:#263238"></path><polygon points="683.64 212.27 615.93 212.27 615.93 224.4 673.05 223.77 683.64 212.27" style="fill:#263238"></polygon><path d="M616.52,218.32c0-.07,13.87-.13,31-.13s31,.06,31,.13-13.86.13-31,.13S616.52,218.39,616.52,218.32Z" style="fill:#455a64"></path><path d="M560.09,116.35l-5.73,4.14s-21.56,4.07-28.1,7.81C508.41,138.51,509.9,200,509.9,200l-4.49,6.24A130.81,130.81,0,0,0,521.88,225l47.35-.64,7-18.56,13-25.23-3.72-2.37L595,149.39l-6.5-6.72-2.44-10L564.23,115Z" style="fill:#e0e0e0"></path><polygon points="586.39 134.62 563.65 116.99 563.98 115.1 561.19 116.76 575.02 183.64 586.39 134.62" style="fill:#fff"></polygon><path d="M561.6,222.53s0-.1.1-.29l.3-.82,1.17-3.14,1.86-5c.37-1,.76-2,1.17-3.1l.64-1.7.64-1.79c.87-2.46,1.83-5.15,2.86-8l1.59-4.47c.54-1.54,1.15-3.11,1.63-4.76a10.88,10.88,0,0,0,.53-2.52,5.55,5.55,0,0,0-.47-2.56c-.33-.82-.75-1.63-1.15-2.47l-1.18-2.52c-1.57-3.41-3-7-4.38-10.75-2.27-6.19-4.26-12.2-6.43-17.66l0-.07.06-.06c1.77-1.72,3.38-3.49,4.91-5.2l.05.19a16.18,16.18,0,0,0-6.55-.72h-.09l0-.09c-1.63-7.37-2.85-13.49-3.57-17.79-.37-2.15-.6-3.84-.73-5s-.15-1.77-.15-1.77,0,.15,0,.45.08.74.16,1.31c.15,1.15.41,2.84.79,5,.76,4.28,2,10.4,3.66,17.76l-.12-.08a16.29,16.29,0,0,1,6.64.71l.17,0-.12.14c-1.53,1.71-3.13,3.48-4.91,5.22l0-.14c2.18,5.47,4.18,11.48,6.45,17.66,1.37,3.72,2.8,7.33,4.36,10.73l1.18,2.52c.39.84.81,1.64,1.16,2.49a6,6,0,0,1,.47,2.66,11,11,0,0,1-.54,2.58c-.49,1.66-1.1,3.23-1.64,4.76s-1.09,3-1.61,4.47l-2.89,8-.65,1.79c-.22.58-.43,1.15-.64,1.69l-1.19,3.1c-.74,1.93-1.39,3.59-1.91,4.95s-.93,2.41-1.22,3.13c-.13.35-.24.62-.32.81A2.22,2.22,0,0,1,561.6,222.53Z" style="fill:#263238"></path><path d="M592.43,155.34l0,.12c0,.09,0,.2-.09.34-.09.32-.21.76-.37,1.32-.34,1.15-.82,2.8-1.42,4.85-1.24,4.12-2.95,9.85-4.88,16.31l0-.15,3,1.94.6.38.1.06-.06.11c-3.39,6.61-6.44,12.58-8.65,16.91L578,202.61l-.73,1.38-.2.35a.86.86,0,0,1-.07.12.58.58,0,0,1,0-.13c.05-.09.1-.21.17-.36l.69-1.4c.61-1.23,1.49-3,2.56-5.13l8.59-16.94.05.17-.6-.38-3-1.94-.08,0,0-.09c2-6.46,3.71-12.17,5-16.29.64-2,1.14-3.68,1.5-4.83l.42-1.3.11-.33C592.41,155.38,592.42,155.34,592.43,155.34Z" style="fill:#263238"></path><path d="M588.47,142.67s0,0,0,.11l.06.34c.05.31.12.75.21,1.29.17,1.15.41,2.79.72,4.82v.09h-.09l-3.3.3.08-.16,2.62,3.5,0,.05,0,.07c-1.15,2.85-2.43,6-3.79,9.42-2.54,6.25-4.84,11.91-6.52,16l-2,4.85c-.23.55-.42,1-.56,1.31l-.15.34c0,.08,0,.11-.06.11l0-.12.13-.35c.12-.32.29-.77.51-1.33.46-1.17,1.12-2.83,1.92-4.88,1.66-4.12,3.93-9.79,6.45-16.06,1.36-3.37,2.66-6.56,3.81-9.41l0,.11-2.6-3.52-.11-.15h.19l3.29-.28-.08.1c-.27-2-.49-3.67-.64-4.82-.07-.55-.12-1-.16-1.3l0-.34Z" style="fill:#263238"></path><path d="M579.23,148.85a2.62,2.62,0,0,1-.31-.3c-.2-.2-.47-.5-.81-.89a31.28,31.28,0,0,1-2.58-3.44l.2,0a25.28,25.28,0,0,1-2.49,5.27c-.41.66-.84,1.29-1.28,1.87l-.12.15-.1-.17-3.32-5.9-1-1.75a5.79,5.79,0,0,1-.32-.64,3,3,0,0,1,.4.6c.26.44.61,1,1,1.71.88,1.5,2.06,3.54,3.41,5.86l-.22,0c.44-.57.86-1.19,1.27-1.84a26.88,26.88,0,0,0,2.5-5.21l.08-.22.12.19a38.13,38.13,0,0,0,2.49,3.48l.76.93A1.6,1.6,0,0,1,579.23,148.85Z" style="fill:#263238"></path><path d="M574.19,182.38s0-.12,0-.35.06-.58.11-1c.09-.86.25-2.11.44-3.64.4-3.07,1-7.31,1.71-12s1.44-8.89,2-11.94c.27-1.52.5-2.75.67-3.6l.2-1a1.32,1.32,0,0,1,.09-.33,1.24,1.24,0,0,1,0,.34c0,.25-.09.58-.15,1-.14.88-.35,2.11-.59,3.62-.51,3-1.2,7.27-1.93,11.94s-1.33,8.9-1.78,12c-.21,1.51-.39,2.74-.52,3.63-.06.41-.12.74-.15,1A1.49,1.49,0,0,1,574.19,182.38Z" style="fill:#263238"></path><g style="opacity:0.30000000000000004"><path d="M554.43,124l.15,1.1,3.2,22.28,5.21-.56-3.91,3,13.65,37.42-.81,7.34s2.89-7.72,2.36-8.85C573,183,560.6,150.94,560.6,150.94l4.9-5.21-6.59-.72Z"></path></g><g style="opacity:0.30000000000000004"><polygon points="587.71 174.95 591.56 159.05 585.43 178.21 589.24 180.61 581.38 195.65 582.94 197.21 590.53 180.47 587.71 174.95"></polygon></g><path d="M586.32,178.59l3.61-7.1a1.14,1.14,0,0,1,1.67-.42h0a1.14,1.14,0,0,1,.37,1.45l-3.72,7.34Z" style="fill:#2669FD"></path><path d="M557.81,175.5a2.47,2.47,0,0,1,4,0s1.66,3,1.38,4.55c-1.86-2.07-1.17-3-3.35-2.85s-2.9,3.3-2.9,3.3A8.27,8.27,0,0,1,557.81,175.5Z" style="fill:#2669FD"></path><g style="opacity:0.30000000000000004"><path d="M557.81,175.5a2.47,2.47,0,0,1,4,0s1.66,3,1.38,4.55c-1.86-2.07-1.17-3-3.35-2.85s-2.9,3.3-2.9,3.3A8.27,8.27,0,0,1,557.81,175.5Z"></path></g><path d="M566.38,187.35l-1.67.75-.13,2.32-6.35-7.83c-.87-1.07-1.25-1.2-1.39-3.05a9.43,9.43,0,0,1,1-4,3.18,3.18,0,0,0,0,2.45C558.39,179.07,566.38,187.35,566.38,187.35Z" style="fill:#2669FD"></path><path d="M566.38,187.35l-1.67.75-.13,2.32s-2.27-2.72-4.12-5c.65-1.08,1.23-2.07,1.57-2.67C564.2,185.09,566.38,187.35,566.38,187.35Z" style="fill:#2669FD"></path><path d="M554.93,188.88l1.77.51.45,2.27s4.61-7.43,5.18-8.65,1-1.36.94-3.21a10.55,10.55,0,0,0-1.36-4.21,4.78,4.78,0,0,1,.18,2.77C561.67,179.55,554.93,188.88,554.93,188.88Z" style="fill:#2669FD"></path><path d="M554.93,188.88l1.77.51.45,2.27s1.87-3,3.37-5.51c-.79-1-1.51-1.87-1.93-2.43C556.77,186.33,554.93,188.88,554.93,188.88Z" style="fill:#2669FD"></path><path d="M563.27,179.8a.94.94,0,0,1,0,.27,5,5,0,0,1,0,.78,3.08,3.08,0,0,1-.36,1.18l-.37.68c-.12.24-.24.5-.38.77-1.18,2.13-2.94,5-4.93,8.25l-.18.29-.06-.33c-.11-.53-.22-1.09-.33-1.66l-.12-.62.09.1-1.77-.51-.17-.05.1-.15c2.12-2.93,4-5.52,5.27-7.39.65-.94,1.16-1.69,1.5-2.22.16-.27.3-.47.37-.61a2.2,2.2,0,0,1,.13-.22,1,1,0,0,1-.08.24c-.07.15-.19.36-.34.64-.32.54-.81,1.32-1.44,2.27-1.26,1.9-3.08,4.51-5.2,7.44l-.06-.2,1.76.51.08,0,0,.08.12.62c.11.56.22,1.13.32,1.66l-.24,0c2-3.23,3.79-6.1,5-8.19.15-.26.27-.52.4-.76l.39-.67a3.07,3.07,0,0,0,.38-1.13C563.28,180.17,563.25,179.8,563.27,179.8Z" style="fill:#263238"></path><g style="opacity:0.30000000000000004"><polygon points="560.74 185.78 561.55 186.77 563.03 183.81 562.31 183.05 560.74 185.78"></polygon></g><path d="M561.91,175.59s-.09-.13-.26-.34a2.11,2.11,0,0,0-.95-.61,2.79,2.79,0,0,0-1.66.05,2.07,2.07,0,0,0-.82.5,1.62,1.62,0,0,0-.28.42,2.21,2.21,0,0,0-.18.51,2.4,2.4,0,0,0,.28,2c.37.52.77,1,1.08,1.36a9.94,9.94,0,0,1,1,1.27,9,9,0,0,1-1.15-1.15,15.94,15.94,0,0,1-1.14-1.34,2.62,2.62,0,0,1-.34-2.17,3.62,3.62,0,0,1,.2-.55A1.39,1.39,0,0,1,558,175a2.22,2.22,0,0,1,.93-.57,2.93,2.93,0,0,1,1.79,0,2,2,0,0,1,1,.72A.88.88,0,0,1,561.91,175.59Z" style="fill:#263238"></path><g style="opacity:0.30000000000000004"><path d="M515.54,163.59s2.59,46.74,7.72,51.76c3.57,3.49,9.75,3.58,18.43,5.63,9.37,2.2,30,2.59,30,2.59s-44.3-18.56-44.13-19.72S515.54,163.59,515.54,163.59Z"></path></g><path d="M548.39,146.33c-.31,1.39,2.67,46.3,2.67,46.3s8,2,13.58,3.12c7.32,1.5,30.32,5,30.32,5L593,222.94a182.94,182.94,0,0,1-34.27-.93c-16.4-2.23-30.85-3.54-34.16-6.5-7-6.27-8-47.1-9.28-54.12" style="fill:#e0e0e0"></path><path d="M515.33,161.39s0,.2.12.6.16,1,.25,1.79c.19,1.58.41,3.91.66,6.91.53,6,1.09,14.7,2.56,25.36.39,2.67.84,5.45,1.45,8.32a37.46,37.46,0,0,0,2.74,8.66A8.67,8.67,0,0,0,524.4,215a5.49,5.49,0,0,0,1.91,1.32,27.81,27.81,0,0,0,4.72,1.44c3.28.72,6.71,1.24,10.23,1.74l10.84,1.42c3.7.46,7.47,1,11.31,1.41a183.18,183.18,0,0,0,23.93.68c1.9-.06,3.8-.15,5.68-.29l-.24.24c.66-7.63,1.31-15.06,1.93-22.21l.21.28c-8.21-1.27-16.06-2.5-23.44-3.76l-5.43-1c-1.79-.33-3.51-.78-5.22-1.16L551,192.83l-.14,0v-.16c-.91-14.14-1.61-25.72-2-33.76-.22-4-.37-7.16-.44-9.29,0-1.07,0-1.88,0-2.43s0-.83,0-.83a1.66,1.66,0,0,1,0,.21v.62c0,.57.07,1.37.11,2.43.13,2.14.31,5.27.55,9.28.53,8,1.28,19.62,2.21,33.75l-.16-.19,9.82,2.24c1.7.37,3.42.82,5.2,1.14l5.43,1c7.38,1.24,15.23,2.46,23.44,3.72l.23,0,0,.24c-.62,7.15-1.26,14.58-1.91,22.2l0,.22-.22,0c-1.89.14-3.79.23-5.71.29a182.38,182.38,0,0,1-24-.69c-3.86-.39-7.62-1-11.32-1.43s-7.32-.94-10.84-1.44-7-1-10.27-1.77a27,27,0,0,1-4.8-1.48,5.77,5.77,0,0,1-2.06-1.42,9.38,9.38,0,0,1-1.35-2,37.74,37.74,0,0,1-2.74-8.77c-.61-2.88-1.05-5.68-1.42-8.34-1.43-10.69-1.93-19.4-2.4-25.4-.22-3-.4-5.34-.56-6.92-.08-.78-.15-1.38-.2-1.79S515.33,161.39,515.33,161.39Z" style="fill:#263238"></path><path d="M525.87,128.83s.09,0,.28-.09a8.37,8.37,0,0,1,.82-.21,15.6,15.6,0,0,1,3.09-.38,17.72,17.72,0,0,1,4.59.45,17.24,17.24,0,0,1,9.52,5.83,17.52,17.52,0,0,1,2.49,3.88,16.86,16.86,0,0,1,1.07,2.93c.1.35.14.64.18.82a2.9,2.9,0,0,1,.05.3,11,11,0,0,1-.33-1.09,19.6,19.6,0,0,0-1.13-2.88,18.54,18.54,0,0,0-2.51-3.81,17.53,17.53,0,0,0-9.39-5.75,18.48,18.48,0,0,0-4.54-.5,17.62,17.62,0,0,0-3.07.3C526.27,128.76,525.87,128.85,525.87,128.83Z" style="fill:#263238"></path><path d="M550.69,192.8a17.41,17.41,0,0,1-1.57,1.06c-1,.63-2.33,1.53-3.78,2.56s-2.73,2-3.65,2.75a14.47,14.47,0,0,1-1.51,1.15,2.65,2.65,0,0,1,.36-.37c.24-.22.59-.54,1-.92.89-.76,2.15-1.77,3.61-2.82S548,194.3,549,193.7c.51-.3.92-.53,1.21-.68A1.61,1.61,0,0,1,550.69,192.8Z" style="fill:#263238"></path><path d="M594.9,202.86s7.57.75,10.18-.12,3.22-1.86,6.2-2,16.24,0,16.24,0,11.29-.44,12.16,1.27a1.84,1.84,0,0,1,0,1.78c-.54.82-3,1.4-3.67,1.4s-15.36.62-15.36.62-.58.19,0,.44,17.47-.74,18.23.09a1.88,1.88,0,0,1-1,2.93c-1.34.38-15.56,2.36-16.13,2.23s10.26.2,11.28,0,5.29-1.34,5.74.06-.51,2.42-3.06,3.69a13.75,13.75,0,0,1-6,1.08,2.37,2.37,0,0,1-1.22,2.75c-1.78,1.08-11.47,2.67-14,2s-21.21-1.6-21.21-1.6Z" style="fill:#ffbf9d"></path><path d="M619.36,217.3c0-.07,2.32-.29,5.19-.49a50.77,50.77,0,0,1,5.2-.24,51.19,51.19,0,0,1-5.19.5A48.86,48.86,0,0,1,619.36,217.3Z" style="fill:#ff9a6c"></path><path d="M555.74,93.62c.65-2.3,1.94-4.56,1.56-6.92-.27-1.69-1.37-3.16-1.56-4.85A7,7,0,0,1,557.42,77c1.06-1.39,2.37-2.56,3.42-4,2-2.6,2.94-5.89,5-8.46,2.68-3.43,6.85-5.18,10.84-6.8,3.77-1.52,7.66-3.07,11.71-3.08,4.42,0,8.63,1.79,12.92,2.86s8.61,1.43,12.15,3.87c3.17,2.19,5.17,5.71,7.07,9.11,2.26,4.06,4.59,8.46,4.14,13.11-.26,2.63-1.4,5.12-1.6,7.76-.26,3.54,1.14,7.45-.7,10.45-1,1.71-2.91,2.67-4.3,4.08a19.91,19.91,0,0,0-3.39,5.6,14.48,14.48,0,0,1-3.7,5.36c-1.7,1.35-4.23,1.84-6,.6L564.71,110a13,13,0,0,1-7.85-6.22A13.52,13.52,0,0,1,555.74,93.62Z" style="fill:#455a64"></path><path d="M579.51,77.89c.1-.23-3.23-2.06-3.07-2.35a14.9,14.9,0,0,1,15.92-7.75l20.37,3.78c8.27,2.79,9,14.9,5.91,23-3.49,9-7.42,18.48-11.47,24.56-8.16,12.22-19,9.25-19,9.25l-8.4,16.29-18.54-27.95Z" style="fill:#ffbf9d"></path><path d="M610,105.47a1.86,1.86,0,0,1-2.42,1,1.78,1.78,0,0,1-1-2.33,1.86,1.86,0,0,1,2.41-1A1.78,1.78,0,0,1,610,105.47Z" style="fill:#263238"></path><path d="M613.85,100.38c-.31.13-1.16-1.41-3-2.24s-3.57-.54-3.67-.85c-.05-.14.35-.44,1.12-.6a5.09,5.09,0,0,1,3.07.41,4.84,4.84,0,0,1,2.24,2.06C614,99.85,614,100.33,613.85,100.38Z" style="fill:#263238"></path><path d="M594.54,98.34c-.31.12-1.15-1.41-3-2.24s-3.57-.54-3.66-.85c-.06-.15.34-.45,1.12-.6a5.13,5.13,0,0,1,3.06.4,4.91,4.91,0,0,1,2.24,2.07C594.69,97.8,594.69,98.29,594.54,98.34Z" style="fill:#263238"></path><path d="M595.67,109.31a12.79,12.79,0,0,1,3.2.82c.48.17,1,.28,1.19,0a2.55,2.55,0,0,0,.32-1.52c.08-1.33.17-2.72.26-4.17.4-5.92.93-10.7,1.16-10.68s.11,4.83-.3,10.75c-.11,1.45-.22,2.84-.32,4.16a3,3,0,0,1-.6,1.94,1.26,1.26,0,0,1-1.08.32,3.14,3.14,0,0,1-.83-.25A13.34,13.34,0,0,1,595.67,109.31Z" style="fill:#263238"></path><path d="M572.84,115.72s-.29,11.38,13.48,16.22l1.83-3.45A36.61,36.61,0,0,1,572.84,115.72Z" style="fill:#ff9a6c"></path><path d="M597.31,91.68c-.41.41-2.12-.66-4.37-1.38s-4.25-.94-4.33-1.51c0-.27.49-.6,1.4-.76a8,8,0,0,1,6.63,2.2C597.28,90.91,597.49,91.48,597.31,91.68Z" style="fill:#263238"></path><path d="M615.83,94.55c-.51.26-1.57-.74-3.07-1.46s-2.91-1-3-1.56c0-.27.36-.6,1.09-.73a4.91,4.91,0,0,1,4.9,2.43C616.08,93.9,616.06,94.41,615.83,94.55Z" style="fill:#263238"></path><path d="M573.41,87.44c0-.44-5.69-6.1-9.16,1.16-3.36,7.06,4.44,9,4.55,8.77S573.41,87.44,573.41,87.44Z" style="fill:#ffbf9d"></path><path d="M567.89,93.66s-.17,0-.42,0a1.4,1.4,0,0,1-.93-.42c-.61-.63-.68-2.11-.11-3.4a4.42,4.42,0,0,1,1.18-1.6,1.55,1.55,0,0,1,1.37-.5.71.71,0,0,1,.57.68c0,.24-.11.36-.08.39s.21,0,.29-.37a.92.92,0,0,0-.07-.57,1,1,0,0,0-.6-.5,1.92,1.92,0,0,0-1.8.48,4.61,4.61,0,0,0-1.36,1.77c-.63,1.45-.53,3.12.35,3.9a1.45,1.45,0,0,0,1.21.35C567.79,93.83,567.91,93.69,567.89,93.66Z" style="fill:#ff9a6c"></path><path d="M592.5,112a3.53,3.53,0,0,0-2.37-2.39,3.21,3.21,0,0,0-2.47.21,2,2,0,0,0-1,2,2.36,2.36,0,0,0,2.08,1.57,7.27,7.27,0,0,0,2.84-.36,2,2,0,0,0,.72-.31.62.62,0,0,0,.28-.65" style="fill:#ff9a6c"></path><path d="M589.3,107.13c.29.11-.51,2,.57,4.05s3.22,2.71,3.12,3-.61.18-1.49-.17a5.28,5.28,0,0,1-2.65-2.38,4.47,4.47,0,0,1-.36-3.35C588.76,107.44,589.17,107.06,589.3,107.13Z" style="fill:#263238"></path><path d="M590.65,76.09c2.34-.55,6.72-1.19,9.67.57,1.73,1,2.52,3.11,4,4.47a6.41,6.41,0,0,0,5.34,1.57c1.91-.33,3.59-1.52,5.51-1.79a6.09,6.09,0,0,1,6,3s.53-7.81-10.9-9.71A36,36,0,0,0,590.65,76.09Z" style="fill:#263238"></path><path d="M564.19,80.28a6.7,6.7,0,0,1,.52-3.78c2.85-7.63,9.7-13.39,17.44-15.91s16.26-2,24,.4c5.69,1.76,11.28,4.67,14.77,9.5s4.36,11.87.88,16.7l-1.22,3c-.48-4.34-1.27-9.24-4.9-11.67s-7.07-3.06-11.26-3.44c-15.85-1.44-20.5,6.36-24.41,11.07-7,8.39-12.88,26.13-18.63,22.78C552.7,103.83,564.47,81.49,564.19,80.28Z" style="fill:#455a64"></path><path d="M563,109.33a.79.79,0,0,1,0-.23c0-.18.06-.4.11-.67l.19-1.08.37-1.45a33.76,33.76,0,0,1,3.93-8.68A87.38,87.38,0,0,1,576.14,86c1.75-2,3.5-4.16,5.48-6.28a28.48,28.48,0,0,1,7-5.67,22.12,22.12,0,0,1,8.64-2.5,30.66,30.66,0,0,1,8.36.49,32.46,32.46,0,0,1,7.24,2.26,17.39,17.39,0,0,1,5.42,3.77A11.9,11.9,0,0,1,621,82.76a10.32,10.32,0,0,1,.39,4.09,8.12,8.12,0,0,1-.7,2.51,6,6,0,0,1-.33.59c-.08.13-.12.2-.13.19a10,10,0,0,0,1-3.31,10.21,10.21,0,0,0-.47-4A11.9,11.9,0,0,0,618,78.3c-2.76-2.9-7.32-4.83-12.49-5.81a30.2,30.2,0,0,0-8.23-.45,21.83,21.83,0,0,0-8.44,2.44A28.05,28.05,0,0,0,582,80.05c-2,2.1-3.74,4.26-5.5,6.25a90.15,90.15,0,0,0-8.62,11.11,35.14,35.14,0,0,0-4,8.55c-.16.53-.3,1-.42,1.43s-.17.76-.24,1.06-.12.48-.16.66A1,1,0,0,1,563,109.33Z" style="fill:#263238"></path><path d="M577,70.33a11.8,11.8,0,0,1,3.34,4.07,11.93,11.93,0,0,1,1.7,5c-.16,0-.76-2.24-2.16-4.73S576.87,70.44,577,70.33Z" style="fill:#263238"></path><path d="M573.16,78.48a14.81,14.81,0,0,1,3.8,1.18,15.57,15.57,0,0,1,3.61,1.67,14.93,14.93,0,0,1-3.8-1.18A15.83,15.83,0,0,1,573.16,78.48Z" style="fill:#263238"></path><path d="M557.78,92.92c.06-.15,2.6.76,5.87,1.26s6,.44,6,.6a16.55,16.55,0,0,1-6-.08A16.74,16.74,0,0,1,557.78,92.92Z" style="fill:#263238"></path><path d="M614.32,67a7.47,7.47,0,0,1-1.3,3.48,7.43,7.43,0,0,1-2.47,2.78c-.11-.1,1-1.32,2-3S614.17,66.94,614.32,67Z" style="fill:#263238"></path><path d="M607.22,61.41A10.61,10.61,0,0,1,609.49,67a10.65,10.65,0,0,1-.61,6A26.22,26.22,0,0,0,609,67,25.72,25.72,0,0,0,607.22,61.41Z" style="fill:#263238"></path><path d="M583.6,85s0,.06-.07.18l-.23.51c-.22.49-.53,1.15-.92,2s-1,1.93-1.48,3.18a9.1,9.1,0,0,0-.5,4.57,8.39,8.39,0,0,0,2.59,5,14.66,14.66,0,0,0,5.88,3.07c2.23.55,5.13.74,6.82-1.49.94-1,1.83-2,2.72-3.06.44-.54.89-1.09,1.32-1.65a1.55,1.55,0,0,1,1-.71,1.48,1.48,0,0,1,1.17.47L602,97l0,.07a1.66,1.66,0,0,1,0,.7l-.1.6-.18,1.21c-.11.82-.22,1.64-.3,2.47s-.15,1.68-.17,2.53a4.5,4.5,0,0,0,.46,2.39,9.67,9.67,0,0,0,3.73,3.49,15.2,15.2,0,0,0,5,1.76A8.2,8.2,0,0,0,616.2,111a9.11,9.11,0,0,0,3.52-4.56c.37-.92.72-1.84,1.08-2.74l.53-1.35.26-.66a1.54,1.54,0,0,0,.09-.6,1.4,1.4,0,0,0-.55-1,8.55,8.55,0,0,0-1.21-.57l-2.54-1.09c-6.67-2.88-12.69-5.44-17.71-7.66L587.78,85.4l-1.86-.84a4.36,4.36,0,0,0-.74-.31,1.37,1.37,0,0,0-.64,0,1.53,1.53,0,0,0-.94.71.75.75,0,0,1,.15-.28,1.44,1.44,0,0,1,.76-.54,1.78,1.78,0,0,1,.7,0,5.3,5.3,0,0,1,.77.3l1.88.79,12,5.14,17.75,7.56L620.11,99a8.22,8.22,0,0,1,1.32.63,1.89,1.89,0,0,1,.75,1.39,2,2,0,0,1-.12.81l-.27.67c-.17.44-.35.89-.52,1.35-.36.9-.71,1.81-1.07,2.73a9.62,9.62,0,0,1-3.72,4.81,8.62,8.62,0,0,1-6.09,1.39,15.23,15.23,0,0,1-5.22-1.82,10.14,10.14,0,0,1-3.93-3.7,4.24,4.24,0,0,1-.45-1.31,7.49,7.49,0,0,1-.06-1.33c0-.87.08-1.72.17-2.57s.19-1.67.31-2.49c.06-.41.13-.81.19-1.22l.1-.6a1.19,1.19,0,0,0,0-.5l.07.12a1,1,0,0,0-.77-.35,1.11,1.11,0,0,0-.68.53c-.44.56-.88,1.11-1.33,1.65-.9,1.08-1.81,2.12-2.76,3.08a9.84,9.84,0,0,1-1.56,1.31,4.91,4.91,0,0,1-1.93.59,10.27,10.27,0,0,1-3.77-.33,15,15,0,0,1-6-3.21,8.68,8.68,0,0,1-2.64-5.17,9.39,9.39,0,0,1,.58-4.7c.57-1.28,1.13-2.3,1.55-3.17l1-2,.27-.5C583.56,85,583.59,85,583.6,85Z" style="fill:#e0e0e0"></path><path d="M584.67,86.6a23.88,23.88,0,0,0-1.28,2.46,9.32,9.32,0,0,0,3.82,11.49,20.46,20.46,0,0,0,2.49,1.21,1.9,1.9,0,0,1-.76-.11,7.67,7.67,0,0,1-1.92-.78,9.27,9.27,0,0,1-4-12,8,8,0,0,1,1.08-1.77C584.44,86.76,584.64,86.58,584.67,86.6Z" style="fill:#fff"></path><path d="M614.25,99.86a15.66,15.66,0,0,1,1.83,3.57,15.35,15.35,0,0,1,1.36,3.78,15.66,15.66,0,0,1-1.83-3.57A15.5,15.5,0,0,1,614.25,99.86Z" style="fill:#fff"></path><path d="M609.89,98.11a36.56,36.56,0,0,1,3.21,5.19,36.19,36.19,0,0,1,2.76,5.44,35.51,35.51,0,0,1-3.21-5.19A36.28,36.28,0,0,1,609.89,98.11Z" style="fill:#fff"></path><path d="M560.84,73.05s23.68,11.12,24,11.08a2.53,2.53,0,0,0-1.57,1.51L582,88.19l-24.1-11.77A4.09,4.09,0,0,1,560.84,73.05Z" style="fill:#e0e0e0"></path><path d="M673.05,223.77l-.39,0-1.14,0-4.41.06-16.2.14-53.44.65c-20.87.28-39.77.46-53.45.49l-16.2,0-4.41,0-1.14,0a1.93,1.93,0,0,1-.39,0l.39,0,1.14,0,4.41-.06,16.19-.14,53.45-.64c20.87-.29,39.77-.47,53.45-.49l16.2,0,4.41,0,1.14,0A1.93,1.93,0,0,1,673.05,223.77Z" style="fill:#263238"></path><path d="M485.65,143s0-.61,0-1.81c0-.6,0-1.34,0-2.22s0-1.91.14-3.07.17-2.45.28-3.89.36-3,.56-4.67a115.76,115.76,0,0,1,2.22-11.53,109.61,109.61,0,0,1,4.52-14,107.27,107.27,0,0,1,7.71-15.69,112.41,112.41,0,0,1,28.23-31.69,111.09,111.09,0,0,1,46.85-20.86,110.88,110.88,0,0,1,28.72-1.6A108.87,108.87,0,0,1,619.87,34a118.08,118.08,0,0,1,14.89,4.24A111.58,111.58,0,0,1,686.56,77a109.71,109.71,0,0,1,9.09,14.62c.64,1.3,1.37,2.56,1.94,3.89l1.8,4c1.08,2.71,2.19,5.42,3.08,8.23A107.33,107.33,0,0,1,706.71,125a120.13,120.13,0,0,1,1.46,17.93,120.12,120.12,0,0,1-1.45,17.93,108.54,108.54,0,0,1-4.25,17.24c-.88,2.81-2,5.52-3.07,8.24l-1.8,4c-.57,1.34-1.3,2.6-1.94,3.9a109.71,109.71,0,0,1-9.09,14.62,111.56,111.56,0,0,1-51.81,38.82,117.75,117.75,0,0,1-14.9,4.24,112.93,112.93,0,0,1-43.64.47,111.21,111.21,0,0,1-46.86-20.86,112.5,112.5,0,0,1-28.22-31.69,106.35,106.35,0,0,1-7.71-15.7,109.5,109.5,0,0,1-4.52-14,116.3,116.3,0,0,1-2.22-11.53c-.2-1.69-.42-3.25-.56-4.67s-.2-2.73-.28-3.89-.13-2.19-.14-3.07,0-1.62,0-2.22c0-1.19,0-1.8,0-1.8s0,.61.07,1.8c0,.59,0,1.34.07,2.22s0,1.9.16,3.06.19,2.45.31,3.88.37,3,.58,4.67c.48,3.36,1.21,7.22,2.26,11.5A111.28,111.28,0,0,0,493.66,184a107.06,107.06,0,0,0,7.73,15.64,112.3,112.3,0,0,0,28.2,31.54,110.67,110.67,0,0,0,46.71,20.73,112.65,112.65,0,0,0,43.47-.5,117.17,117.17,0,0,0,14.83-4.23,111.21,111.21,0,0,0,51.56-38.67,109.76,109.76,0,0,0,9-14.56c.64-1.29,1.36-2.55,1.93-3.88l1.8-4c1.06-2.71,2.17-5.41,3.05-8.2a107.78,107.78,0,0,0,4.22-17.16,119.16,119.16,0,0,0,1.45-17.85,120.5,120.5,0,0,0-1.45-17.85A108.75,108.75,0,0,0,702,107.93c-.89-2.79-2-5.49-3.06-8.19-.6-1.33-1.2-2.65-1.79-4s-1.3-2.58-1.94-3.87a109.76,109.76,0,0,0-9-14.56A111.16,111.16,0,0,0,634.6,38.68a118.86,118.86,0,0,0-14.83-4.23A112.65,112.65,0,0,0,576.3,34a110.65,110.65,0,0,0-46.71,20.72,112.35,112.35,0,0,0-28.2,31.55,111.82,111.82,0,0,0-12.28,29.59,116.76,116.76,0,0,0-2.27,11.5c-.21,1.69-.44,3.24-.58,4.67s-.22,2.72-.31,3.88-.14,2.18-.16,3.07-.05,1.62-.07,2.21C485.68,142.34,485.65,143,485.65,143Z" style="fill:#263238"></path></g><g id="freepik--character-1--inject-4"><g id="freepik--character-1--inject-4"><circle cx="143.93" cy="336.03" r="109.47" transform="translate(-195.45 200.19) rotate(-45)" style="fill:#fafafa"></circle><path d="M34.45,336s0-.6,0-1.78c0-.59,0-1.32,0-2.18s0-1.89.14-3,.17-2.42.28-3.83.35-2.94.55-4.6a114.6,114.6,0,0,1,2.18-11.37,109.52,109.52,0,0,1,4.46-13.78A104.58,104.58,0,0,1,49.71,280a110.91,110.91,0,0,1,27.81-31.22,107.47,107.47,0,0,1,20.94-12.55,106.23,106.23,0,0,1,25.22-8A108.81,108.81,0,0,1,152,226.65a110.39,110.39,0,0,1,14.71,2,118,118,0,0,1,14.67,4.18,109.94,109.94,0,0,1,51,38.24,108.85,108.85,0,0,1,9,14.4c.63,1.27,1.34,2.52,1.91,3.83l1.77,3.92c1.06,2.68,2.16,5.35,3,8.11a106.88,106.88,0,0,1,4.18,17A117.84,117.84,0,0,1,253.66,336a119.42,119.42,0,0,1-1.43,17.67,106.61,106.61,0,0,1-4.18,17c-.88,2.77-2,5.44-3,8.11l-1.77,3.93c-.57,1.31-1.28,2.56-1.92,3.84a108.06,108.06,0,0,1-9,14.4,110,110,0,0,1-51,38.25,116.23,116.23,0,0,1-14.67,4.17,111.18,111.18,0,0,1-43,.46,109.53,109.53,0,0,1-46.16-20.55,110.71,110.71,0,0,1-27.8-31.22,104.58,104.58,0,0,1-7.59-15.46,107.41,107.41,0,0,1-4.46-13.78,114.46,114.46,0,0,1-2.18-11.36c-.2-1.67-.42-3.2-.55-4.61s-.2-2.68-.28-3.83-.12-2.15-.14-3,0-1.6,0-2.19c0-1.17,0-1.77,0-1.77s0,.6.08,1.77l.06,2.19c0,.87,0,1.88.16,3l.3,3.82c.15,1.41.38,2.94.58,4.6a115.47,115.47,0,0,0,2.23,11.33,106.91,106.91,0,0,0,4.49,13.74A105.37,105.37,0,0,0,50,391.91,110.64,110.64,0,0,0,77.74,423a109.14,109.14,0,0,0,46,20.42,111,111,0,0,0,42.82-.5,117,117,0,0,0,14.61-4.16A109.56,109.56,0,0,0,232,400.64a108.18,108.18,0,0,0,8.91-14.34c.63-1.28,1.34-2.51,1.9-3.82l1.77-3.91c1-2.66,2.14-5.32,3-8.07a107,107,0,0,0,4.16-16.9,109.21,109.21,0,0,0,0-35.17,106.57,106.57,0,0,0-4.16-16.89c-.87-2.75-2-5.41-3-8.07l-1.77-3.91c-.56-1.31-1.27-2.54-1.9-3.82A106.41,106.41,0,0,0,232,271.41a109.52,109.52,0,0,0-50.78-38.09,117.06,117.06,0,0,0-14.61-4.17,111.37,111.37,0,0,0-42.81-.49,109.11,109.11,0,0,0-46,20.42A110.63,110.63,0,0,0,50,280.14a105.87,105.87,0,0,0-7.61,15.41,109,109,0,0,0-4.49,13.74c-1,4.23-1.76,8-2.23,11.34-.2,1.66-.43,3.19-.58,4.59l-.3,3.83c-.11,1.14-.13,2.15-.16,3l-.06,2.18C34.49,335.43,34.45,336,34.45,336Z" style="fill:#263238"></path><polygon points="166.08 421.09 124.56 421.09 116.04 319.9 129.64 313.7 169.58 321.23 174.81 380.92 166.08 421.09" style="fill:#455a64"></polygon><path d="M127,286.25a104.38,104.38,0,0,1-4.74-17.31c-.91-5.91-.81-12.1,1.21-17.73.31-.86,2.93-6.6,3.84-6.52.64.05-1,5.4-.62,6,3.18,5.31,4.11,11.73,3.69,17.91A81.44,81.44,0,0,1,127,286.25" style="fill:#263238"></path><path d="M127.2,316.94l-1.09-53.53c-.67-15,7.5-27.9,22.52-28.16l1.39.06a26.86,26.86,0,0,1,25.72,25.77c.51,13,.91,27.39.53,34.34-.77,14.39-15.26,16-15.26,16s-.25,7.47-.24,11.7l-13.28,16.4L127.2,316.94Z" style="fill:#ae7461"></path><path d="M161,311.45a34.81,34.81,0,0,1-18.52-6.31s4.06,11,18.48,10.31Z" style="fill:#6f4439"></path><path d="M170,274.36a2,2,0,0,1-2.07,2,2,2,0,0,1-2-1.94,2.05,2.05,0,0,1,2.07-2A2,2,0,0,1,170,274.36Z" style="fill:#263238"></path><path d="M172.42,267.31c-.27.26-1.78-1-4-1s-3.88,1-4.11.67c-.12-.12.16-.6.89-1.08a5.57,5.57,0,0,1,3.31-.87,5.47,5.47,0,0,1,3.16,1.16C172.34,266.7,172.55,267.2,172.42,267.31Z" style="fill:#263238"></path><path d="M150,274.36a2,2,0,0,1-2.06,2,2,2,0,0,1-2.05-1.94,2.05,2.05,0,0,1,2.07-2A2,2,0,0,1,150,274.36Z" style="fill:#263238"></path><path d="M150.7,266.93c-.26.26-1.77-1-4-1.05s-3.88,1-4.1.68.16-.6.89-1.09a5.71,5.71,0,0,1,3.3-.87,5.48,5.48,0,0,1,3.17,1.17C150.62,266.32,150.83,266.81,150.7,266.93Z" style="fill:#263238"></path><path d="M157.94,284.26a14.21,14.21,0,0,1,3.62-.5c.57,0,1.11-.13,1.22-.51a2.86,2.86,0,0,0-.31-1.69c-.47-1.39-1-2.84-1.49-4.37-2.07-6.22-3.54-11.33-3.29-11.41s2.13,4.9,4.2,11.12c.49,1.53,1,3,1.42,4.39a3.28,3.28,0,0,1,.2,2.23,1.41,1.41,0,0,1-1,.79,3.94,3.94,0,0,1-1,.1A14.43,14.43,0,0,1,157.94,284.26Z" style="fill:#263238"></path><path d="M151.79,259.56c-.27.58-2.45.11-5.06.19s-4.78.61-5.07,0c-.13-.27.28-.8,1.18-1.31a8.75,8.75,0,0,1,7.71-.17C151.47,258.77,151.91,259.29,151.79,259.56Z" style="fill:#263238"></path><path d="M172.92,260c-.38.57-2.24.33-4.39.63s-3.9.94-4.4.49c-.22-.23,0-.77.71-1.36a7,7,0,0,1,3.43-1.36,6.89,6.89,0,0,1,3.65.46C172.76,259.26,173.08,259.74,172.92,260Z" style="fill:#263238"></path><path d="M126.84,274.12c-.24-.12-9.77-3.33-9.86,6.52s9.82,7.92,9.84,7.64S126.84,274.12,126.84,274.12Z" style="fill:#ae7461"></path><path d="M123.85,284.51s-.18.12-.47.25a1.72,1.72,0,0,1-1.28,0c-1-.4-1.9-2.06-1.93-3.83a5.72,5.72,0,0,1,.5-2.46,2,2,0,0,1,1.31-1.3.85.85,0,0,1,1,.48c.13.27.07.47.12.49s.22-.17.14-.57a1.13,1.13,0,0,0-.38-.63,1.35,1.35,0,0,0-1-.26,2.43,2.43,0,0,0-1.81,1.52,5.77,5.77,0,0,0-.62,2.74c0,2,1,3.85,2.47,4.28a1.82,1.82,0,0,0,1.57-.25C123.83,284.75,123.88,284.53,123.85,284.51Z" style="fill:#6f4439"></path><path d="M169.37,244.75c1.6-.88-3.19-6.05-7.11-7.83-5.92-2.69-15-4.35-20.43-2.81-6.58,1.86-12.05,5.13-15.35,11.12A38.69,38.69,0,0,0,122.12,265a11.75,11.75,0,0,0,1.38,6c1.38,2.18,4,3.55,3.9,6.56a4.17,4.17,0,0,0,1,3c1.81,1.92,4,.11,5-1.69,2.17-3.86,2.41-8.47,2.6-12.9.14-3.14.27-6.35-.62-9.37-.48-1.64-1.25-3.2-1.64-4.86a5,5,0,0,1,1.5-5.73,10.27,10.27,0,0,1,10.2-1.94c5.55,2,15,4.9,17.51,3,3.56-2.71,4.41-4.47,4.41-4.47Z" style="fill:#263238"></path><path d="M151,285.63c.34,0,.35,2.24,2.3,3.84s4.35,1.34,4.37,1.65c0,.15-.54.45-1.55.48a5.67,5.67,0,0,1-3.65-1.25,4.9,4.9,0,0,1-1.78-3.22C150.58,286.18,150.83,285.62,151,285.63Z" style="fill:#263238"></path><path d="M176.93,364.84s1,1.56,2.73,4,4.23,6,7.06,9.87l.22.3-.35.1-2.37.69.19-.2c-.06.26-.11.54-.17.82l-.44,2.22-.48.07.49-.12-.48.14c-2.68-4.33-5-8.21-6.55-11.07-.21-.36-.38-.7-.54-1l-.48-.91a4,4,0,0,1-.47-1.6,6.89,6.89,0,0,1,0-1.05,1.3,1.3,0,0,1,0-.35c.05,0,0,.5.13,1.37a4.14,4.14,0,0,0,.52,1.5c.17.28.34.58.52.89s.36.67.57,1c1.63,2.79,4,6.64,6.68,11l-.48.13.49-.11-.48.06c.14-.71.28-1.46.43-2.22.06-.28.11-.56.16-.82l0-.16.15,0,2.36-.68-.13.4C180.64,371.21,176.63,365,176.93,364.84Z" style="fill:#263238"></path><path d="M177.58,360.54c-.06,0,.44-.81,1.78-1.12a3.31,3.31,0,0,1,2.35.24,3.23,3.23,0,0,1,1.45,2.51,4.69,4.69,0,0,1-.73,2.78,11.19,11.19,0,0,1-1.41,1.82,5.81,5.81,0,0,1-1.6,1.36,16.33,16.33,0,0,1,1.33-1.61,13.13,13.13,0,0,0,1.26-1.81,4.3,4.3,0,0,0,.63-2.5,2.77,2.77,0,0,0-1.17-2.13,3.06,3.06,0,0,0-2-.3A5.08,5.08,0,0,0,177.58,360.54Z" style="fill:#263238"></path><path d="M161.52,421.09l1.41-107.39,6,5.14,18.58,3.76a29.75,29.75,0,0,1,14.4,8.5c9.44,11.14,7.93,11.28,13.7,20,4.73,7.18,20.75,28.95,24.79,44.06,0,0,3.46,14.41-6.76,18.36a21.34,21.34,0,0,1-5.49,1.26c-11.07,1.18-21.75-4.49-27.72-12.82l-11-17.91-1.76,37Z" style="fill:#e0e0e0"></path><path d="M182.66,361a2.94,2.94,0,0,0-2.59-1.42,2.9,2.9,0,0,0-2.8,1.37s-2.22,4-1.85,6.09c2.5-2.78,1.58-4,4.49-3.82s3.88,4.41,3.88,4.41A11,11,0,0,0,182.66,361Z" style="fill:#2669FD"></path><g style="opacity:0.30000000000000004"><path d="M182.66,361a2.94,2.94,0,0,0-2.59-1.42,2.9,2.9,0,0,0-2.8,1.37s-2.22,4-1.85,6.09c2.5-2.78,1.58-4,4.49-3.82s3.88,4.41,3.88,4.41A11,11,0,0,0,182.66,361Z"></path></g><path d="M171.19,376.86l2.25,1,.16,3.1,8.5-10.48c1.17-1.42,1.68-1.6,1.85-4.07a12.62,12.62,0,0,0-1.29-5.42,4.27,4.27,0,0,1,0,3.29C181.88,365.79,171.19,376.86,171.19,376.86Z" style="fill:#2669FD"></path><path d="M171.19,376.86l2.25,1,.16,3.1s3.05-3.64,5.51-6.67c-.86-1.44-1.64-2.76-2.09-3.57C174.12,373.83,171.19,376.86,171.19,376.86Z" style="fill:#2669FD"></path><path d="M185.11,377l0,0c-.1-.13-.19-.27-.29-.41l-.05-.07-.33-.45,0,0-.35-.5,0,0-.37-.52,0,0-.37-.53,0-.05-.39-.56,0,0-.41-.57,0-.05a88.35,88.35,0,0,1-5.42-8.22,6.39,6.39,0,0,1,.25-3.71,14.22,14.22,0,0,0-1.83,5.64c-.1,2.47.49,2.66,1.26,4.29.28.59,1.27,2.28,2.42,4.19v0l.77,1.26h0l.34.56.11.18.26.43.11.17.68,1.11.13.22c.07.11.14.22.2.33l.14.22.18.3.11.18.26.42.18.29.08.13.13.21.17.27,0,.06.19.3,0,0c.27.42.42.67.42.67h0l.6-3,1.18-.34,1.19-.34Z" style="fill:#2669FD"></path><g style="opacity:0.30000000000000004"><polygon points="178.74 374.76 177.65 376.09 175.68 372.13 176.64 371.12 178.74 374.76"></polygon></g><path d="M195,335.71a3,3,0,0,1,0,.66c0,.48,0,1.11-.07,1.88-.07,1.64-.23,4-.48,6.91-.49,5.83-1.46,13.86-2.6,22.7s-2.07,16.87-2.53,22.69c-.24,2.91-.4,5.27-.48,6.9l-.12,1.88a4.41,4.41,0,0,1-.07.66,2.82,2.82,0,0,1,0-.66c0-.48,0-1.11,0-1.88,0-1.64.12-4,.31-6.92.37-5.84,1.24-13.88,2.38-22.73s2.17-16.86,2.75-22.67c.3-2.91.52-5.26.64-6.89.07-.77.13-1.39.18-1.88A2.8,2.8,0,0,1,195,335.71Z"></path><path d="M161.83,397.61a4.5,4.5,0,0,1,.26-.84l.84-2.38c.72-2.07,1.69-5.08,2.82-8.83s2.46-8.21,4.13-13.12c.84-2.45,1.78-5,2.81-7.63.53-1.31,1.06-2.65,1.65-4s1.21-2.67,1.67-4.07a7.41,7.41,0,0,0,.33-4.2,9.66,9.66,0,0,0-2.21-3.51,7.35,7.35,0,0,1-2-3.72,5.23,5.23,0,0,1,.25-2.09,9.23,9.23,0,0,1,.89-1.81c.68-1.11,1.46-2.11,2.05-3.16a5.37,5.37,0,0,0,.8-3.27,8.42,8.42,0,0,0-1.24-3l-1.56-2.64-4.68-8-1.25-2.19a5,5,0,0,1-.4-.78,4.39,4.39,0,0,1,.49.72l1.34,2.14,4.81,7.93c.51.84,1,1.71,1.59,2.63a8.62,8.62,0,0,1,1.33,3.12,5.83,5.83,0,0,1-.83,3.55c-.6,1.1-1.38,2.1-2,3.19a10.13,10.13,0,0,0-.84,1.72,4.74,4.74,0,0,0-.21,1.87,7,7,0,0,0,1.9,3.46,9.71,9.71,0,0,1,2.32,3.7,7.91,7.91,0,0,1-.34,4.49c-.47,1.45-1.13,2.78-1.69,4.12s-1.11,2.65-1.65,3.95c-1,2.62-2,5.16-2.82,7.61-1.69,4.88-3.05,9.34-4.24,13.07s-2.2,6.74-3,8.79c-.38,1-.7,1.81-.93,2.34A7.27,7.27,0,0,1,161.83,397.61Z"></path><path d="M101.58,301.91l-10.12,19.2s-15.94-10.11-16-10.84,11-15.74,11-15.74Z" style="fill:#ae7461"></path><path d="M100.54,259.47l-1.69,1.62a.6.6,0,0,0,.06.91l51,37.59,0,0,5.45,3.35a.85.85,0,0,0,1.07-1.29l-4.1-4.52-.09-.08-50.95-37.66A.61.61,0,0,0,100.54,259.47Z" style="fill:#fafafa"></path><path d="M100.54,259.47a.46.46,0,0,1,.33-.18.58.58,0,0,1,.47.11l.52.37c.82.58,2,1.42,3.45,2.49l12.63,9.23,18.7,13.75,11,8.13,2.89,2.13,1.46,1.08.37.28a2.43,2.43,0,0,1,.36.36l.62.68,2.49,2.74.63.69a1.27,1.27,0,0,1,.44,1,1.14,1.14,0,0,1-.7.93,1.05,1.05,0,0,1-.61.06,1.34,1.34,0,0,1-.51-.23l-3.2-2-1.58-1-.4-.25c-.06,0-.13-.07-.21-.13l-.19-.14-.74-.55L143,294.8l-11-8.15-18.65-13.82-12.54-9.35c-.74-.56-1.39-1-2-1.49a.67.67,0,0,1,.06-1l.6-.56.81-.75.29-.24a1.7,1.7,0,0,1-.25.28l-.78.79-.58.57a.52.52,0,0,0,0,.77l2,1.44,12.64,9.22,18.71,13.73,11,8.12,5.84,4.3.74.54.19.14.17.11.4.25,1.58,1,3.2,2a.64.64,0,0,0,.65.13.61.61,0,0,0,.38-.5c0-.23-.06-.37-.31-.62l-.63-.69L153,298.24l-.61-.68a3.92,3.92,0,0,0-.29-.29l-.36-.27-1.47-1.08-2.89-2.14-11-8.16-18.62-13.83-12.54-9.37-3.39-2.57c-.39-.29-.66-.57-.92-.51A1,1,0,0,0,100.54,259.47Z" style="fill:#263238"></path><path d="M116.92,269.55a1.68,1.68,0,0,0-.27-3.07c-4.07-1.36-12.8-4.09-15.09-3.21-3,1.16-15,4.1-15.88,6.28s-.19,12.1-.19,12.1L86.58,296l13.51,8a10.46,10.46,0,0,0,3.29-7.81c-.11-6.71-.62-6.68-.62-6.68l3.56-5s-3.57,5.38.07,6.47c0,0,4.37-4.42,4.86-6.06a8.45,8.45,0,0,0-.34-4.08s2.12-2.12.18-4.06c0,0,2.38-1,.69-3.47a9.56,9.56,0,0,0-4.61-3.36l-2.83-1.43S113.9,271.09,116.92,269.55Z" style="fill:#ae7461"></path><path d="M97.84,283.12a7.76,7.76,0,0,1,1.51-1.53,9.84,9.84,0,0,1,4.63-2.41,8.13,8.13,0,0,1,5.15.79,4.35,4.35,0,0,1,1.7,1.33c0,.07-.67-.48-1.86-1a8.6,8.6,0,0,0-4.9-.6,10.47,10.47,0,0,0-4.49,2.18A10.77,10.77,0,0,1,97.84,283.12Z" style="fill:#6f4439"></path><path d="M95.91,277.92a1.83,1.83,0,0,1,.25-.68,7.7,7.7,0,0,1,1.13-1.64,8.68,8.68,0,0,1,12-1,7.77,7.77,0,0,1,1.39,1.42c.27.38.39.61.36.63a24.26,24.26,0,0,0-2-1.75,8.72,8.72,0,0,0-11.48,1A23.91,23.91,0,0,0,95.91,277.92Z" style="fill:#6f4439"></path><path d="M91.54,272.85c0-.08.87-.56,2.15-1.59.65-.51,1.4-1.14,2.29-1.8a10.24,10.24,0,0,1,3.22-1.69,6.93,6.93,0,0,1,3.65,0,11.39,11.39,0,0,1,2.72,1.16,8.43,8.43,0,0,1,2.17,1.62c0,.07-.89-.53-2.35-1.29a11.73,11.73,0,0,0-2.65-1,6.75,6.75,0,0,0-3.4,0,10.66,10.66,0,0,0-3.08,1.58l-2.35,1.71A7.18,7.18,0,0,1,91.54,272.85Z" style="fill:#6f4439"></path><path d="M164.22,305.44l1.18,18.9,12.39,27.44a2.43,2.43,0,0,1-2.21,3.42H144.82a2.42,2.42,0,0,1-2.23-3.36L154.24,324V305.44Z" style="fill:#e0e0e0"></path><path d="M164.22,305.44l-.68,0-1.95,0-7.35.07.13-.13c0,4.69,0,11,.07,18.52V324c-2.38,5.72-5.1,12.25-8,19.34l-2.26,5.42L143,351.58a2.6,2.6,0,0,0-.31,1.36,2.22,2.22,0,0,0,.52,1.24,2.06,2.06,0,0,0,1.16.7,8,8,0,0,0,1.5.06h29.4a2.41,2.41,0,0,0,1.64-.43,2.22,2.22,0,0,0,.85-1.39,2.61,2.61,0,0,0-.33-1.63l-.75-1.65-1.46-3.25c-3.82-8.53-7.21-16.08-9.94-22.19l0,0v0c-.33-5.88-.59-10.58-.77-13.84-.09-1.61-.15-2.87-.19-3.75,0-.41,0-.73-.05-1a3,3,0,0,1,0-.34,1.3,1.3,0,0,1,0,.31c0,.24,0,.55.08.94.06.88.15,2.12.27,3.71.23,3.28.56,8,1,13.93l0-.06,10.06,22.14q.74,1.59,1.47,3.24l.75,1.65a3,3,0,0,1,.37,1.91,2.64,2.64,0,0,1-1,1.71,2.68,2.68,0,0,1-.93.45,4.35,4.35,0,0,1-1,.08h-29.4a9.88,9.88,0,0,1-1.61-.07,2.66,2.66,0,0,1-2.08-2.42,3.07,3.07,0,0,1,.35-1.58l1.16-2.78,2.27-5.42c3-7.08,5.72-13.59,8.12-19.31l0,.08c0-7.5.06-13.83.08-18.52v-.13h.13l7.42.07,1.92,0C164,305.42,164.22,305.44,164.22,305.44Z" style="fill:#263238"></path><rect x="152.24" y="304.44" width="13.83" height="3.44" rx="1.66" style="fill:#e0e0e0"></rect><path d="M153.9,307.88s-.51.18-1.2-.37a1.78,1.78,0,0,1-.6-1.39,1.81,1.81,0,0,1,1.06-1.7,2.7,2.7,0,0,1,1.18-.18h1.22l2.69,0,6.17,0A2,2,0,0,1,166,305a2,2,0,0,1,.31.85,2.19,2.19,0,0,1-.07.88,1.88,1.88,0,0,1-1.14,1.24,2.36,2.36,0,0,1-.81.13h-.72l-5-.05-3.39-.09a5.51,5.51,0,0,1-1.25-.1,6.37,6.37,0,0,1,1.25-.1l3.39-.08,5-.06a4.45,4.45,0,0,0,1.35-.1,1.43,1.43,0,0,0,.83-.93,1.62,1.62,0,0,0-.18-1.29,1.41,1.41,0,0,0-1.16-.61l-6.17,0-2.69,0h-1.22a2.38,2.38,0,0,0-1,.1,1.52,1.52,0,0,0-.92,1.37,1.61,1.61,0,0,0,.45,1.24A2.24,2.24,0,0,0,153.9,307.88Z" style="fill:#263238"></path><path d="M168.92,336.62c.11.22,3.77,9.17,5.73,13.95a2.13,2.13,0,0,1-2,2.94H147.1a2.13,2.13,0,0,1-2-2.92l5.55-14Z" style="fill:#2669FD"></path><path d="M230,391.38a3,3,0,0,1-.43-.45c-.29-.35-.67-.81-1.14-1.36-1-1.18-2.42-2.9-4.23-5-3.61-4.17-8.77-9.77-14.87-15.55-2.67-2.54-5.3-4.9-7.74-7l.33,0a65.15,65.15,0,0,0-9.05,11.11c-1,1.49-1.67,2.7-2.15,3.53A10.22,10.22,0,0,1,190,378a1.2,1.2,0,0,1,.14-.36q.15-.34.48-1c.44-.86,1.11-2.1,2-3.62a60.78,60.78,0,0,1,9-11.29l.16-.16.17.14c2.46,2.1,5.1,4.45,7.78,7a193.53,193.53,0,0,1,14.79,15.69c1.78,2.11,3.17,3.86,4.11,5.08l1.07,1.42A3.84,3.84,0,0,1,230,391.38Z"></path><path d="M183.53,345.52c-.37-.93-4.68-5-4.68-5l-8.17-13-9.49-3.69L152,328s.06,4.4,3.43,3.65a38.86,38.86,0,0,0,4.82-1.29l4.68,2,3.68,6.69-9,.56-11.67,6.07s1.49,3,4.39,3.11c2.59.07,6.41-1.71,6.41-1.71l6.08-.75L151,354.5l3.37,3-2.43,1.68,1.72,1.12A5.55,5.55,0,0,0,158,361l12.43-3s7.5,13,13.11,15.59,6.73,3.92,6.73,3.92l9.38-13.5Z" style="fill:#ae7461"></path><path d="M176.41,353.84s-.2-.34-.63-.88a6,6,0,0,0-2.33-1.68,7.66,7.66,0,0,0-4.22-.43,18.23,18.23,0,0,0-5,1.73c-3.44,1.66-6.42,3.44-8.59,4.71l-2.56,1.5a3.82,3.82,0,0,1-1,.49,4.52,4.52,0,0,1,.87-.66c.58-.4,1.42-1,2.48-1.65a82.12,82.12,0,0,1,8.55-4.86,18,18,0,0,1,5.18-1.74,7.87,7.87,0,0,1,4.43.58,5.61,5.61,0,0,1,2.34,1.89A2.45,2.45,0,0,1,176.41,353.84Z" style="fill:#6f4439"></path><path d="M176.86,345.21a19.08,19.08,0,0,0-6.33-.76,18.73,18.73,0,0,0-6.08,1.89,4.81,4.81,0,0,1,1.57-1.11,12.16,12.16,0,0,1,9.09-.83A5,5,0,0,1,176.86,345.21Z" style="fill:#6f4439"></path><path d="M176.14,341.45a12.68,12.68,0,0,0-3.59-2.08,12.21,12.21,0,0,0-4.13-.29c0-.06.42-.29,1.2-.43a6.77,6.77,0,0,1,3.08.22,6.7,6.7,0,0,1,2.68,1.55C176,341,176.18,341.42,176.14,341.45Z" style="fill:#6f4439"></path><path d="M94.75,319.9,47.51,354.36l.39,16.27c1.76,3.78,13.25,5.34,22.51,1.35l35-20.23Z" style="fill:#e0e0e0"></path><path d="M94.75,319.9s11.7-2,17-2.66L121.5,316l5.94-5.26c0,1.17,7.47,110.33,7.47,110.33H94.22l-3.15-66.32Z" style="fill:#e0e0e0"></path><path d="M133.08,395.19a4.45,4.45,0,0,1-.37-.79c-.22-.52-.55-1.3-1-2.3-.8-2-1.92-4.93-3.27-8.56-2.72-7.23-6.35-17.28-11.13-28.05a19,19,0,0,1-1.44-4.18,6.21,6.21,0,0,1,.62-4.28,33.62,33.62,0,0,1,2.51-3.28,4.58,4.58,0,0,0,1.15-3.45,7.76,7.76,0,0,0-1.43-3.29,28.21,28.21,0,0,1-1.87-3,5.29,5.29,0,0,1-.56-3.31c.19-1.06.46-2,.71-3a36.13,36.13,0,0,1,1.67-5c.56-1.42,1.06-2.64,1.47-3.66s.71-1.73.94-2.3a4.93,4.93,0,0,1,.37-.79,8.3,8.3,0,0,1-.27.83l-.86,2.33c-.38,1-.85,2.26-1.38,3.69a39.71,39.71,0,0,0-1.59,4.95c-.24.93-.49,1.91-.67,2.94a4.9,4.9,0,0,0,.56,3.05,28.78,28.78,0,0,0,1.87,2.95,8.24,8.24,0,0,1,1.52,3.49,5.08,5.08,0,0,1-1.23,3.8,34,34,0,0,0-2.46,3.23,5.59,5.59,0,0,0-.56,3.93,18,18,0,0,0,1.41,4.06c4.78,10.8,8.37,20.88,11,28.15L132,392c.36,1,.65,1.76.86,2.34A7.4,7.4,0,0,1,133.08,395.19Z"></path><path d="M45.93,343.74A120.24,120.24,0,0,1,53,331.81l26.56-36,20.19,16.73L78.52,349.38,54.37,370.63l-6.16.45C41.45,365.3,39.73,356.13,45.93,343.74Z" style="fill:#e0e0e0"></path><path d="M91.07,339.55c.14,0,.44,7.05.66,15.76s.29,15.76.15,15.77-.44-7.05-.67-15.76S90.92,339.55,91.07,339.55Z"></path><path d="M68.41,360.49a3.24,3.24,0,0,1,.26-.52l.84-1.44,3.19-5.21c2.71-4.38,6.52-10.39,10.83-17s8.32-12.47,11.31-16.68c1.5-2.09,2.72-3.78,3.6-4.93l1-1.31c.23-.3.36-.45.38-.44a3,3,0,0,1-.3.5l-.93,1.37-3.47,5c-2.91,4.26-6.87,10.17-11.17,16.75s-8.12,12.51-11,16.89l-3.33,5.12L68.76,360A2.75,2.75,0,0,1,68.41,360.49Z"></path><g style="opacity:0.30000000000000004"><path d="M117.18,354.57c-.89-2.29-1.65-4.93-.58-7.14,1-2,3.73-3.56,4.11-5.78a6.79,6.79,0,0,0-1.45-4.72,17.5,17.5,0,0,1-2.54-4.35c-.5-1.61,1.5-8.65,2-9.76l2.53-6.37a55.44,55.44,0,0,0-4.83,9.26A18.64,18.64,0,0,0,115.35,336c.42,2,1.28,3.88,1.19,5.89-.12,2.6-1.78,4.84-2.61,7.31-1.84,5.48.54,11.4,3.08,16.59a242.44,242.44,0,0,0,14,24.11C126.13,375.5,121.43,365.53,117.18,354.57Z"></path></g><path d="M88.74,377.14h0a.89.89,0,0,0,.89.89h1.59V394.2l-9.75,21.67a3.7,3.7,0,0,0,3.37,5.22h19.39a3.7,3.7,0,0,0,3.37-5.23L97.47,393.51V378.13h1.44a.94.94,0,0,0,.94-.94h0a.94.94,0,0,0-.94-.95H89.63A.89.89,0,0,0,88.74,377.14Z" style="fill:#fff"></path><path d="M88.74,377.14a.69.69,0,0,1,0-.27.89.89,0,0,1,.49-.59,4,4,0,0,1,1.26-.11l1.71,0,4.74,0H98.4a4.4,4.4,0,0,1,.79,0,1.06,1.06,0,0,1,.69.55,1.1,1.1,0,0,1-.64,1.54,3.45,3.45,0,0,1-.89.06h-.88l.17-.16c0,4.31,0,9.53,0,15.38l0-.09,6.92,15.19q.93,2,1.88,4.14l1,2.11a6.22,6.22,0,0,1,.75,2.31,4,4,0,0,1-2.66,4,4.18,4.18,0,0,1-1.27.22H85.55a6.24,6.24,0,0,1-1.65-.12A3.94,3.94,0,0,1,81.15,416c.4-1,.83-1.85,1.23-2.77l8.67-19.11v.07c0-7.49.09-13.08.11-16.17l.07.07-1.33,0a1.1,1.1,0,0,1-.9-.27.76.76,0,0,1-.25-.67,1,1,0,0,0,.31.62,1,1,0,0,0,.84.21l1.33,0h.07V378c0,3.09.06,8.68.11,16.17v.08c-2.43,5.42-5.33,11.92-8.57,19.16-.39.9-.84,1.83-1.21,2.74a3.37,3.37,0,0,0,.17,2.79A3.44,3.44,0,0,0,84,420.73a5.43,5.43,0,0,0,1.53.1h18.7a3.74,3.74,0,0,0,1.1-.19,3.48,3.48,0,0,0,2.32-3.44,6,6,0,0,0-.7-2.12c-.33-.71-.64-1.42-1-2.12l-1.87-4.14L97.27,393.6l0-.05v0c0-5.85,0-11.07.06-15.38V378h1a3.37,3.37,0,0,0,.8,0,.8.8,0,0,0,.47-1.11.82.82,0,0,0-.5-.41,4.16,4.16,0,0,0-.72,0H97l-4.74,0-1.71,0a4.53,4.53,0,0,0-1.22.05.87.87,0,0,0-.49.53C88.75,377.05,88.75,377.14,88.74,377.14Z" style="fill:#263238"></path><path d="M98.53,378.05a16.49,16.49,0,0,1-4.16.26,16.55,16.55,0,0,1-4.16-.26,17.13,17.13,0,0,1,4.16-.26A17.06,17.06,0,0,1,98.53,378.05Z" style="fill:#263238"></path><path d="M208.28,421.09c0,.14-29.89.26-66.76.26s-66.77-.12-66.77-.26,29.89-.26,66.77-.26S208.28,420.94,208.28,421.09Z" style="fill:#263238"></path><path d="M136.06,421.09H117.31a3.9,3.9,0,0,1-3.9-3.91V385H143l-3,3v29.23A3.91,3.91,0,0,1,136.06,421.09Z" style="fill:#ebebeb"></path><path d="M136.06,421.09s.22,0,.65-.1a3.89,3.89,0,0,0,1.69-.78,3.84,3.84,0,0,0,1.42-2.56c.05-1.18,0-2.6,0-4.14,0-6.25-.06-15.08-.09-25.56v-.1l.07-.06c.93-.93,1.94-2,3-3l.17.42H113.41l.25-.26c0,8,0,15.6,0,22.45,0,3.43,0,6.68,0,9.71a3.74,3.74,0,0,0,2,3.37,3.88,3.88,0,0,0,1.92.39h2l12.1.08,3.27.05.85,0,.29,0a1.64,1.64,0,0,1-.29,0l-.85,0-3.27,0-12.1.08h-2a4.2,4.2,0,0,1-2.09-.42,4.12,4.12,0,0,1-2.29-3.71c0-3,0-6.28,0-9.71,0-6.85,0-14.43,0-22.45v-.26h6.28l23.52,0h.58l-.41.42-3,3,.07-.17c0,10.48-.07,19.31-.09,25.56,0,1.56,0,2.93-.07,4.16a3.92,3.92,0,0,1-3.31,3.4A2.35,2.35,0,0,1,136.06,421.09Z" style="fill:#263238"></path><path d="M115.18,401.87h23.1a0,0,0,0,1,0,0v12.21a5.32,5.32,0,0,1-5.32,5.32H120.5a5.32,5.32,0,0,1-5.32-5.32V401.87A0,0,0,0,1,115.18,401.87Z" style="fill:#2669FD"></path><path d="M120.55,394.09a18.07,18.07,0,0,1-3.45.17,18,18,0,0,1-3.45-.17,18,18,0,0,1,3.45-.17A18.07,18.07,0,0,1,120.55,394.09Z" style="fill:#263238"></path><path d="M116.71,390.26a3.74,3.74,0,0,1-1.53.16,3.78,3.78,0,0,1-1.53-.16,3.68,3.68,0,0,1,1.53-.17A3.64,3.64,0,0,1,116.71,390.26Z" style="fill:#263238"></path><path d="M120.55,401.7a18.07,18.07,0,0,1-3.45.17,18,18,0,0,1-3.45-.17,18,18,0,0,1,3.45-.17A18.07,18.07,0,0,1,120.55,401.7Z" style="fill:#263238"></path><path d="M116.71,397.87a3.74,3.74,0,0,1-1.53.16,3.78,3.78,0,0,1-1.53-.16,3.68,3.68,0,0,1,1.53-.17A3.64,3.64,0,0,1,116.71,397.87Z" style="fill:#263238"></path><path d="M120.55,409.31a18.61,18.61,0,0,1-3.45.16,18.53,18.53,0,0,1-3.45-.16,18,18,0,0,1,3.45-.17A18.07,18.07,0,0,1,120.55,409.31Z" style="fill:#263238"></path><path d="M116.71,405.48a3.74,3.74,0,0,1-1.53.16,3.78,3.78,0,0,1-1.53-.16,3.68,3.68,0,0,1,1.53-.17A3.64,3.64,0,0,1,116.71,405.48Z" style="fill:#263238"></path><path d="M120.55,416.92a18.61,18.61,0,0,1-3.45.16,18.53,18.53,0,0,1-3.45-.16,18,18,0,0,1,3.45-.17A18.07,18.07,0,0,1,120.55,416.92Z" style="fill:#263238"></path><path d="M116.71,413.09a3.74,3.74,0,0,1-1.53.16,3.78,3.78,0,0,1-1.53-.16,3.5,3.5,0,0,1,1.53-.17A3.46,3.46,0,0,1,116.71,413.09Z" style="fill:#263238"></path></g></g><g id="freepik--character-2--inject-4"><path d="M245.38,221.15c-.17-.6,17.07-32.45,17.07-32.45l24,.25-9.09,38.58Z" style="fill:#ffbf9d"></path><path d="M241.31,205.4s-26.5,57.77-23.82,77.42S230,313.19,253.82,318,333,323.1,333,323.1l-12-73.6-30,9.8s-15.19-4.17-21.14,3.57l12-45.07Z" style="fill:#e0e0e0"></path><path d="M269.57,263.52s.09.13.22.39.32.66.52,1.18a29.32,29.32,0,0,1,1.4,4.54,31.54,31.54,0,0,1-8.22,29,29.59,29.59,0,0,1-3.57,3.13c-.44.34-.82.56-1.06.73a1.69,1.69,0,0,1-.39.22,11,11,0,0,1,1.33-1.11,34.36,34.36,0,0,0,3.42-3.22,32.32,32.32,0,0,0,8.13-28.68,35.54,35.54,0,0,0-1.23-4.54A14.88,14.88,0,0,1,269.57,263.52Z" style="fill:#263238"></path><path d="M280.35,289.38c-.09,0,.1-1.59.17-4.15a52.13,52.13,0,0,0-3.16-19.58c-.88-2.4-1.56-3.84-1.48-3.87a4.05,4.05,0,0,1,.57,1c.33.64.77,1.59,1.25,2.78a45.58,45.58,0,0,1,3.19,19.73c-.08,1.28-.2,2.32-.31,3A5.71,5.71,0,0,1,280.35,289.38Z" style="fill:#263238"></path><path d="M320,249.85s20.16-7.22,24-7.22,27.78.62,27.78.62l15.57-9.07,51.94,1.54,11.4,14.45,29.92,16.08-23.83,104,21.54,111.31H310l15.39-172.84Z" style="fill:#e0e0e0"></path><path d="M382.15,481.58s0-.16-.06-.49-.06-.82-.11-1.43c-.08-1.28-.2-3.13-.35-5.5s-.22-5.32-.29-8.72c0-1.7-.08-3.52-.09-5.45s.06-4,.09-6.11c.09-8.56.65-18.75,1.42-30s2-23.69,3.47-36.67c2.92-26,6.2-49.4,8.48-66.37,1.13-8.47,2.05-15.33,2.68-20.1.31-2.35.54-4.19.71-5.46l.2-1.42a4.53,4.53,0,0,1,.08-.48s0,.16,0,.48-.08.82-.15,1.43c-.14,1.28-.34,3.12-.61,5.48-.55,4.75-1.41,11.63-2.51,20.12-2.19,17-5.42,40.41-8.34,66.38-1.45,13-2.6,25.36-3.5,36.64s-1.39,21.46-1.53,30q-.06,3.21-.12,6.1c0,1.93,0,3.75,0,5.45,0,3.39,0,6.32.2,8.71s.2,4.22.26,5.51c0,.61,0,1.08.05,1.43S382.15,481.58,382.15,481.58Z" style="fill:#263238"></path><path d="M329.76,266.25c.14,0-1.56,19.53-3.81,43.58s-4.2,43.56-4.34,43.54,1.57-19.52,3.82-43.59S329.62,266.23,329.76,266.25Z" style="fill:#263238"></path><path d="M390.66,310.14a1.8,1.8,0,0,1-.13-.19l-.36-.57-1.34-2.22c-1.16-2-2.81-4.77-4.83-8.2l-7.1-12.2c-1.32-2.31-2.78-4.69-4.09-7.29a25.81,25.81,0,0,1-2.78-8.55,14.2,14.2,0,0,1,1.38-8,9.77,9.77,0,0,1,5.61-5.08l.07.48L364.17,258h-.33l.15-.28,5.4-10.24,1.5-2.78.41-.72a1.23,1.23,0,0,1,.15-.24.84.84,0,0,1-.1.26l-.35.75c-.35.69-.82,1.64-1.41,2.83-1.27,2.49-3,6-5.24,10.32l-.18-.29,12.93.2,1.5,0-1.43.46a9.31,9.31,0,0,0-5.31,4.84,13.79,13.79,0,0,0-1.31,7.7,25.24,25.24,0,0,0,2.72,8.38c1.29,2.58,2.73,5,4,7.28,2.64,4.6,5,8.75,7,12.25l4.69,8.29,1.25,2.27c.12.24.23.43.31.59S390.67,310.13,390.66,310.14Z" style="fill:#263238"></path><path d="M450.61,251.4a.93.93,0,0,1-.09.27l-.32.78c-.31.73-.74,1.72-1.27,3l-4.76,10.82-.06.13-.15,0-13.36-1.79.26-.34c1.58,3.56,3.31,7.44,5.11,11.48l.08.17-.14.12-2.16,2.09-23.09,22.14-7,6.67c-.82.75-1.46,1.35-1.93,1.79l-.52.46c-.11.1-.18.15-.18.14s0-.07.15-.18l.47-.49,1.87-1.87,6.92-6.79,23-22.25,2.16-2.08-.05.29-5.09-11.49-.18-.4.44.06L444,266l-.21.12,4.91-10.75,1.37-2.92c.15-.31.28-.56.37-.76S450.6,251.39,450.61,251.4Z" style="fill:#263238"></path><path d="M444.83,290s-1.49-3.34-6.69-3.72a7.52,7.52,0,0,0-7.26,3.59s-5.76,10.49-4.8,15.92c6.47-7.26,4.08-10.51,11.64-10s10,11.52,10,11.52S449.46,299.9,444.83,290Z" style="fill:#2669FD"></path><g style="opacity:0.30000000000000004"><path d="M444.83,290s-1.49-3.34-6.69-3.72a7.52,7.52,0,0,0-7.26,3.59s-5.76,10.49-4.8,15.92c6.47-7.26,4.08-10.51,11.64-10s10,11.52,10,11.52S449.46,299.9,444.83,290Z"></path></g><path d="M415.12,331.39l5.82,2.64.42,8.1s19.07-23.73,22-27.38,4.34-4.2,4.8-10.66-3.37-14.15-3.37-14.15,2,4.66,0,8.58S415.12,331.39,415.12,331.39Z" style="fill:#2669FD"></path><path d="M415.12,331.39l5.82,2.64.42,8.1s7.89-9.51,14.29-17.43c-2.25-3.77-4.27-7.21-5.44-9.34C422.69,323.48,415.12,331.39,415.12,331.39Z" style="fill:#2669FD"></path><path d="M451.19,331.63l-.06-.09-.76-1.07-.13-.18c-.27-.38-.55-.77-.83-1.18l-.08-.12c-.3-.41-.6-.85-.92-1.29l-.06-.09-1-1.35-.08-.12-1-1.4-.09-.13-1-1.46-.06-.08q-.53-.74-1.05-1.5l-.08-.12c-6.34-9.09-13.27-19.28-14-21.49-1.45-4.17.64-9.68.64-9.68s-4.41,7.43-4.73,14.72c-.27,6.47,1.26,7,3.26,11.23.73,1.55,3.3,6,6.28,10.95l0,0,2,3.3,0,0,.88,1.47.28.46.68,1.12c.09.15.18.31.28.46.59,1,1.18,2,1.75,2.9.12.19.23.38.35.56s.35.58.52.87.23.38.35.56.32.54.49.81l.28.47.67,1.09c.16.26.31.5.45.75l.22.35c.11.19.22.36.33.54l.44.71.09.15c.17.29.34.56.49.8l.05.09,1.08,1.76h0l1.56-8,3.06-.9,3.07-.89S453.38,334.72,451.19,331.63Z" style="fill:#2669FD"></path><g style="opacity:0.30000000000000004"><polygon points="434.67 325.9 431.86 329.37 426.75 319.03 429.24 316.37 434.67 325.9"></polygon></g><path d="M430,300s.13.27.41.77.7,1.23,1.28,2.16c1.16,1.86,2.91,4.51,5.15,7.79,4.48,6.56,10.86,15.64,18.21,25.9l.21.3-.35.1-6.13,1.79.18-.2c-.13.69-.28,1.43-.42,2.18-.39,2-.77,3.93-1.13,5.77l-.15.75-.34-.68h0l.49-.12-.48.14c-6.92-11.33-13-21.4-17.14-28.81-.52-.93-.93-1.87-1.36-2.7l-1.27-2.36a10.47,10.47,0,0,1-1.26-4.1,20.22,20.22,0,0,1-.06-2.7l0-.7a1.48,1.48,0,0,1,0-.24.64.64,0,0,1,0,.24c0,.18,0,.41,0,.7a23.41,23.41,0,0,0,.15,2.67,10.47,10.47,0,0,0,1.31,4L428.7,315c.45.84.86,1.75,1.38,2.67,4.18,7.35,10.35,17.39,17.28,28.71l-.48.13.49-.11h0l-.48.06c.36-1.84.74-3.79,1.13-5.77.14-.75.29-1.49.42-2.18l0-.16.16,0,6.13-1.79-.14.4c-7.33-10.27-13.67-19.39-18.07-26-2.2-3.31-3.91-6-5-7.88-.55-.95-1-1.69-1.21-2.22A4.28,4.28,0,0,1,430,300Z" style="fill:#263238"></path><path d="M431.67,288.73a1.44,1.44,0,0,1,.23-.3,6.58,6.58,0,0,1,.81-.73,9.33,9.33,0,0,1,3.65-1.62,8.39,8.39,0,0,1,5.86.71,8.05,8.05,0,0,1,3.5,6.26,11.9,11.9,0,0,1-1.82,7,29.18,29.18,0,0,1-3.53,4.74,37.94,37.94,0,0,1-2.79,2.83,6.58,6.58,0,0,1-1.13.92,10.07,10.07,0,0,1,1-1.06c.64-.68,1.58-1.66,2.66-2.93a32.24,32.24,0,0,0,3.38-4.74,11.62,11.62,0,0,0,1.72-6.73A7.67,7.67,0,0,0,442,287.2a8.19,8.19,0,0,0-5.55-.76,10,10,0,0,0-3.61,1.42C432.06,288.38,431.71,288.77,431.67,288.73Z" style="fill:#263238"></path><path d="M297.57,146a2.76,2.76,0,0,0,.5-.17,6.57,6.57,0,0,0,3.39-3.6,2.74,2.74,0,0,0-1.36-3.42c-1-.47-2.16-1-3.17-1.41-2.05-.77-17.95-5.64-20.39-4.36s-5.39,4.88-7.44,7.06a30.17,30.17,0,0,0-2.57,2.95s-7.82-.9-7.57,6.41c0,0-9.36,3.72-7.44,10.65,0,0,.77,2.05-.26,2.82s-3.33,4.87-1.4,9.24,8.72,17.57,8.72,17.57,4.75,10,14.62,8,14.88-11.16,14.88-11.16,8.85-10.26,9.75-15.26,5.13-6.8,8.72-11.42,7.06-9.75,2.83-12.57-8.73,1.67-11.16,5.13-6.16,6.54-8.21,4.75-9.79-7.44-9.79-7.44l1.71-5.65Z" style="fill:#455a64"></path><g style="opacity:0.2"><path d="M261.75,171.56a10,10,0,0,0,.89,7.61,8.69,8.69,0,0,0,6.3,4.25,7.7,7.7,0,0,0,7-2.86c1.15-1.51,1.67-3.45,2.92-4.88s3.41-2.33,5.39-3a34.82,34.82,0,0,0,7.44-3,9.94,9.94,0,0,0,4.78-6.21,4.5,4.5,0,0,0-.78-3.81,6.34,6.34,0,0,0-2.7-1.55l-13.33-5a11.6,11.6,0,0,0-3.84-1,11.79,11.79,0,0,0-4.87,1.36,21.72,21.72,0,0,0-4.69,2.55,7.43,7.43,0,0,0-2.92,4.35"></path></g><path d="M304.11,205.3h-1.66a5.73,5.73,0,0,1-5.73-5.73v-69.7a.93.93,0,0,1,.93-.93h11.26a.93.93,0,0,1,.93.93v69.7A5.73,5.73,0,0,1,304.11,205.3Z" style="fill:#fff"></path><path d="M304.11,205.3a8.45,8.45,0,0,0,1.72-.32,5.69,5.69,0,0,0,3.5-3.31,5.77,5.77,0,0,0,.37-1.65c.05-.59,0-1.24,0-1.9,0-1.34,0-2.79,0-4.34,0-3.12,0-6.66,0-10.58,0-7.84,0-17.17-.06-27.53,0-5.18,0-10.62,0-16.26q0-4.23,0-8.6c0-.34,0-.77,0-1.05a.67.67,0,0,0-.51-.54c-.62,0-1.44,0-2.15,0H298c-.77-.09-1.12.3-1,1.07v10.8c0,5.64,0,11.07,0,16.26,0,10.36,0,19.69-.06,27.53,0,3.92,0,7.46,0,10.58,0,1.55,0,3,0,4.33a5.52,5.52,0,0,0,1.19,3.3,5.63,5.63,0,0,0,4.3,2.17l1.31,0a2.19,2.19,0,0,1,.45,0l-.45,0-1.31,0a5.78,5.78,0,0,1-5.74-5.57c0-1.34,0-2.79,0-4.34,0-3.12,0-6.66,0-10.58,0-7.84,0-17.17-.06-27.53,0-5.19,0-10.62,0-16.26q0-4.23,0-8.61v-2.19c0-.19,0-.33,0-.59a1.13,1.13,0,0,1,.3-.62,1.26,1.26,0,0,1,.61-.35,3.35,3.35,0,0,1,.61,0h10.57a3.28,3.28,0,0,1,.6,0,1.18,1.18,0,0,1,.91,1c0,.44,0,.75,0,1.13v8.6c0,5.64,0,11.08,0,16.26,0,10.36,0,19.69-.06,27.53,0,3.92,0,7.46,0,10.58,0,1.55,0,3,0,4.34,0,.67,0,1.29,0,1.92a5.87,5.87,0,0,1-.41,1.71,5.76,5.76,0,0,1-3.66,3.33A4.5,4.5,0,0,1,304.11,205.3Z" style="fill:#263238"></path><path d="M299.12,159.92h8.33a.43.43,0,0,1,.43.43v39.12a4,4,0,0,1-4,4H302.7a4,4,0,0,1-4-4V160.35A.43.43,0,0,1,299.12,159.92Z" style="fill:#2669FD"></path><path d="M258.82,187.41c0,.53-9,12.68-7,14.59s35,9.93,35.3,8.82,2.81-29.2,2.81-29.2Z" style="fill:#455a64"></path><rect x="293.82" y="123.71" width="18.92" height="9.21" rx="0.62" style="fill:#2669FD"></rect><path d="M266.53,143s11.92.6,15.4,1,20.89,9.88,19.85,11.85-1.39,4.62-6.13,4-12.83-5.32-12.83-5.32" style="fill:#455a64"></path><path d="M282.82,154.63a3.8,3.8,0,0,1,.57.27l1.58.8c1.38.69,3.39,1.7,5.95,2.7a22.89,22.89,0,0,0,4.3,1.26,8.28,8.28,0,0,0,2.44.09,3.62,3.62,0,0,0,2.25-1,8.15,8.15,0,0,0,1.36-2.35c.08-.2.24-.47.29-.63s-.06-.28-.16-.45a6.22,6.22,0,0,0-1-1,40,40,0,0,0-5-3.47,91.45,91.45,0,0,0-10.51-5.5,18.57,18.57,0,0,0-2.47-.91,18.8,18.8,0,0,0-2.46-.31l-4.51-.36-6.53-.47-1.78-.14a3,3,0,0,1-.62-.08,2.36,2.36,0,0,1,.63,0l1.78,0c1.54.06,3.78.15,6.54.3,1.39.08,2.9.17,4.52.3a11.71,11.71,0,0,1,5.09,1.21,87.52,87.52,0,0,1,10.59,5.49,39,39,0,0,1,5.09,3.54,6.67,6.67,0,0,1,1.05,1.13,1.08,1.08,0,0,1,.21.9c-.11.29-.22.44-.31.67a8.56,8.56,0,0,1-1.47,2.48,4.08,4.08,0,0,1-1.19.8,5.15,5.15,0,0,1-1.34.33,9.18,9.18,0,0,1-2.58-.12,22.26,22.26,0,0,1-4.35-1.35,53.94,53.94,0,0,1-5.91-2.86c-.68-.37-1.2-.68-1.55-.89A2.61,2.61,0,0,1,282.82,154.63Z" style="fill:#263238"></path><path d="M263.86,149.89c.35.12,12.26.05,14.34,1.64s14.45,9.69,13.87,11.31-2.08,3.59-6.71,3.12-13.64-4.51-13.64-4.51l-13.87.24" style="fill:#455a64"></path><path d="M257.85,161.69a4.74,4.74,0,0,1,1-.08l2.78-.11,10.11-.25h0l.05,0a93.78,93.78,0,0,0,8.87,3.36,23.35,23.35,0,0,0,5.2,1.12c1.77.12,3.8-.1,5.06-1.48a4.31,4.31,0,0,0,.85-1.43c.09-.14,0-.34-.17-.57a5.29,5.29,0,0,0-.53-.64,25.59,25.59,0,0,0-2.53-2.25c-1.74-1.4-3.49-2.67-5.17-3.87l-4.77-3.39-.56-.41c-.18-.09-.34-.21-.54-.29a8.42,8.42,0,0,0-1.21-.36c-.82-.19-1.62-.3-2.39-.41-3.09-.36-5.62-.45-7.36-.55a17.15,17.15,0,0,1-2.7-.2h2.71c1.75,0,4.27.07,7.39.39a23.09,23.09,0,0,1,2.44.38,8,8,0,0,1,1.28.37,5.54,5.54,0,0,1,.64.33l.55.4,4.8,3.35c1.69,1.19,3.45,2.45,5.21,3.86a26.22,26.22,0,0,1,2.59,2.29,6,6,0,0,1,.58.71,2.63,2.63,0,0,1,.24.44.94.94,0,0,1,0,.3.77.77,0,0,1-.06.31,4.74,4.74,0,0,1-1,1.59,5,5,0,0,1-2.61,1.46,9.62,9.62,0,0,1-2.87.18,23.41,23.41,0,0,1-5.3-1.16,85.77,85.77,0,0,1-8.9-3.45l.09,0-10.11.08h-2.79A6.77,6.77,0,0,1,257.85,161.69Z" style="fill:#263238"></path><path d="M257.85,177.29l4.39-5.89h3s0,4.36,2.69,5.35c2.91,1.08,3.76-.29,4.71-3.74.64-2.35,2.84-7.62.23-9.85-.87-.74-10.39-1.59-10.39-1.59" style="fill:#455a64"></path><path d="M262.49,161.57a9.47,9.47,0,0,1,1.77.07c1.13.08,2.77.22,4.78.48a27.43,27.43,0,0,1,3.3.58,2.62,2.62,0,0,1,.46.17,1,1,0,0,1,.41.31,3.68,3.68,0,0,1,.61.8,5.29,5.29,0,0,1,.53,2c.14,2.82-1.07,5.6-1.89,8.58a8.28,8.28,0,0,1-.7,1.55,2.59,2.59,0,0,1-1.33,1.15,3.11,3.11,0,0,1-1.71,0,4,4,0,0,1-3.23-3.11,9.59,9.59,0,0,1-.46-2.74l.22.22-3,0,.16-.08-3.29,4.26-.91,1.15a2.52,2.52,0,0,1-.35.37s.07-.16.26-.44l.83-1.2,3.15-4.37.05-.08h.1l3,0h.21v.21a9.33,9.33,0,0,0,.47,2.6,4.26,4.26,0,0,0,1.55,2.24,4.36,4.36,0,0,0,1.35.52,2.63,2.63,0,0,0,1.42,0c.9-.3,1.35-1.39,1.71-2.4.82-2.94,2-5.75,1.9-8.37a4.91,4.91,0,0,0-.45-1.78,3.11,3.11,0,0,0-.52-.7c-.19-.26-.39-.28-.69-.39a28.33,28.33,0,0,0-3.22-.62c-2-.31-3.63-.5-4.75-.65A15,15,0,0,1,262.49,161.57Z" style="fill:#263238"></path><path d="M291,135.55l12.58,4.57s2.37,8.13-6,5.87l-7.37-2.11" style="fill:#455a64"></path><path d="M487.22,130.27c-3-6.78-10.38-10.62-17.64-12.15-5.33-1.12-11.1-1.23-16,1.17s-8.57,7.79-7.68,13.16L447,155.92c3-2.31,7-2.66,10.75-2.3S465.19,155,469,155a20.24,20.24,0,0,0,15.92-7.5A17.32,17.32,0,0,0,487.22,130.27Z" style="fill:#263238"></path><path d="M464.6,151.22a23.67,23.67,0,0,0-1.56-8.4,40.54,40.54,0,0,0-7-12.89c-3-3.66-8.36-5.25-13.07-4.78l17.61,33.27C463.11,157,464.44,154.08,464.6,151.22Z" style="fill:#455a64"></path><path d="M359.39,157.45c-1.62,22.81,6,46.74,20.77,60.77s36.5,16.82,52.65,5.29c5.64-4,10.87-4.8,15.3-10.69,5.65-7.53,11.32-14.72,14.36-24.25s4.22-21.79-.69-36.89" style="fill:#263238"></path><path d="M359.23,163.23a46.45,46.45,0,0,1,29-44.95c10.7-4.3,22.68-4.48,34.06-2.66,7.36,1.18,14.74,3.24,20.87,7.47S453.69,133.2,457,139.68s5.13,13.44,7.09,20.43" style="fill:#263238"></path><path d="M436.19,137.69l-29.7-14.22-3,2.51c-17.95-1.16-34.29,11.35-36.68,33.62-1.73,16.09-3.24,32.45-1.49,44.53,3.53,24.28,22.25,27.85,22.25,27.85s.05,9.65.05,9.65l11.48,55,39.18-51,5.41-99.2A8.52,8.52,0,0,0,436.19,137.69Z" style="fill:#ffbf9d"></path><path d="M402,177.27a3.12,3.12,0,0,0,3,3.18,3,3,0,0,0,3.24-2.76,3.12,3.12,0,0,0-3-3.18A3,3,0,0,0,402,177.27Z" style="fill:#263238"></path><path d="M371.51,176.46a3.12,3.12,0,0,0,3,3.18,3,3,0,0,0,3.24-2.76,3.11,3.11,0,0,0-2.95-3.18A3,3,0,0,0,371.51,176.46Z" style="fill:#263238"></path><path d="M369.6,166.18c.38.41,2.76-1.3,6.1-1.25s5.77,1.76,6.14,1.36c.18-.18-.2-.92-1.26-1.71a8.51,8.51,0,0,0-4.91-1.59,8.25,8.25,0,0,0-4.86,1.5C369.77,165.27,369.41,166,369.6,166.18Z" style="fill:#263238"></path><path d="M401.54,167.68c.42.36,2.61-1.58,5.94-1.87s5.92,1.15,6.25.71c.16-.19-.29-.89-1.43-1.57a8.63,8.63,0,0,0-5.05-1.07,8.21,8.21,0,0,0-4.68,2C401.62,166.75,401.34,167.51,401.54,167.68Z" style="fill:#263238"></path><path d="M390.22,192.2c0-.19-2.05-.58-5.42-1.06-.85-.1-1.65-.28-1.79-.86a4.4,4.4,0,0,1,.6-2.52l2.61-6.47c3.63-9.21,6.27-16.79,5.9-16.93s-3.62,7.2-7.24,16.41c-.88,2.28-1.72,4.44-2.51,6.51a4.93,4.93,0,0,0-.49,3.35,2.11,2.11,0,0,0,1.39,1.26,6.08,6.08,0,0,0,1.45.23C388.1,192.34,390.21,192.39,390.22,192.2Z" style="fill:#263238"></path><path d="M387.58,232A62.85,62.85,0,0,0,420,223.51s-8.16,17.33-32.38,14.74Z" style="fill:#ff9a6c"></path><path d="M391.53,200.27a6,6,0,0,1,5.43-2.16,5.47,5.47,0,0,1,3.77,2.08,3.49,3.49,0,0,1,.22,4,4,4,0,0,1-4.4,1,12.62,12.62,0,0,1-4.24-2.6,3.71,3.71,0,0,1-.94-1,1.1,1.1,0,0,1,0-1.25" style="fill:#ff9a6c"></path><path d="M400,194.64c-.54,0-.6,3.59-3.74,6.12s-7,2.09-7,2.6c-.05.22.85.71,2.48.78a9.06,9.06,0,0,0,5.87-2,7.88,7.88,0,0,0,2.91-5.14C400.67,195.53,400.28,194.62,400,194.64Z" style="fill:#263238"></path><path d="M401,154.81c.41.87,3.7.15,7.64.27s7.21.91,7.66,0c.19-.41-.43-1.21-1.78-2a13.35,13.35,0,0,0-11.66-.24C401.52,153.61,400.86,154.39,401,154.81Z" style="fill:#263238"></path><path d="M370.49,153.2c.58.77,2.89,0,5.66,0s5.11.58,5.66-.21c.25-.38-.11-1.14-1.13-1.88a7.85,7.85,0,0,0-4.59-1.3,7.74,7.74,0,0,0-4.53,1.47C370.57,152.05,370.24,152.83,370.49,153.2Z" style="fill:#263238"></path><path d="M440.85,132.8c-2.15-2.68-5.66-3.9-9-4.9a196.65,196.65,0,0,0-44.1-7.86c-1.54,3.06.55,6.94,3.52,8.9s6.62,2.57,10.05,3.56,7,2.62,8.68,5.7c1.78,3.27.95,7.34,2.56,10.69,2.78,5.77,11.45,7.13,14.2,12.91,2.07,4.37-.13,9.31-.33,14.06a17.68,17.68,0,0,0,6.74,14.34,18.78,18.78,0,0,0,12.33,3.88c-.67-17,2.59-34.9,1.92-51.92C447.3,138.61,443.13,135.64,440.85,132.8Z" style="fill:#263238"></path><path d="M425.16,117.87a9.36,9.36,0,0,1-1.53-.29c-.48-.11-1.07-.24-1.77-.35s-1.48-.28-2.36-.36-1.85-.21-2.89-.25-2.15-.06-3.32-.06a46.65,46.65,0,0,0-7.56.83,47.5,47.5,0,0,0-7.29,2.16c-1.08.45-2.11.86-3,1.34s-1.79.92-2.56,1.36-1.44.87-2,1.24-1.1.72-1.5,1a8.19,8.19,0,0,1-1.29.85,10,10,0,0,1,1.17-1,17.3,17.3,0,0,1,1.46-1.09c.59-.4,1.24-.88,2-1.32a25.81,25.81,0,0,1,2.55-1.42c.93-.51,2-.94,3.05-1.41a45.39,45.39,0,0,1,7.37-2.22,44.43,44.43,0,0,1,7.65-.8c1.19,0,2.31,0,3.36.11s2,.19,2.91.32,1.67.3,2.37.44a14.49,14.49,0,0,1,1.76.44A7.75,7.75,0,0,1,425.16,117.87Z" style="fill:#455a64"></path><path d="M449.44,136a6.77,6.77,0,0,1,.21,1.39c.06.45.11,1,.13,1.65s.08,1.38.05,2.19a40.42,40.42,0,0,1-.47,5.68,44.76,44.76,0,0,1-1.66,6.78,43.19,43.19,0,0,1-2.79,6.4,38.54,38.54,0,0,1-3.07,4.81c-.46.66-.95,1.21-1.36,1.71a14.94,14.94,0,0,1-1.1,1.23,6,6,0,0,1-1,1c-.08-.07,1.32-1.51,3.17-4.14a42.84,42.84,0,0,0,2.95-4.81,48.86,48.86,0,0,0,2.72-6.35,47.78,47.78,0,0,0,1.68-6.69,46.1,46.1,0,0,0,.57-5.61C449.57,138,449.34,136,449.44,136Z" style="fill:#455a64"></path><path d="M459.21,148.74a7.58,7.58,0,0,1,.06,1.31c0,.84,0,2-.13,3.55a59.69,59.69,0,0,1-6.3,22.48c-.68,1.34-1.28,2.4-1.73,3.11a6.33,6.33,0,0,1-.73,1.08,6.23,6.23,0,0,1,.56-1.18c.39-.74.93-1.82,1.57-3.17A68.72,68.72,0,0,0,456.6,165a70.1,70.1,0,0,0,2.17-11.44c.15-1.49.25-2.69.3-3.53A5.62,5.62,0,0,1,459.21,148.74Z" style="fill:#455a64"></path><polygon points="392.97 267.2 418.38 271.52 399.11 296.59 392.97 267.2" style="fill:#2669FD"></polygon><path d="M406.9,188.66c-6.14,0-11-2.27-12.52-5.06-2-3.65-4.13-12.34-4.15-12.42a1.39,1.39,0,0,0-.6-1,1.49,1.49,0,0,0-1.1,0,2,2,0,0,0-.25.61c0,.08-2.15,8.76-4.15,12.42s-9.39,6.3-18,4.47l-1-.23a14.94,14.94,0,0,1-10.73-15.05l.36-9a3.18,3.18,0,0,1,3.19-3.07h0l33.61.32,28,0a4.13,4.13,0,0,1,4.12,4l.32,8.1a15,15,0,0,1-10.65,15l-1,.25A26.07,26.07,0,0,1,406.9,188.66ZM389.14,169.1a2.07,2.07,0,0,1,1,.23,2.29,2.29,0,0,1,1.09,1.61c0,.09,2.12,8.64,4.06,12.18,1.79,3.28,9,5.66,16.92,4,.33-.07.66-.15,1-.24a13.94,13.94,0,0,0,9.91-14l-.32-8.1a3.13,3.13,0,0,0-3.12-3l-28,0L358,161.36h0a2.19,2.19,0,0,0-2.19,2.11l-.36,9a13.93,13.93,0,0,0,10,14c.29.08.6.16.91.22,7.9,1.69,15.12-.69,16.92-4,1.68-3.07,3.62-10.39,4.05-12.18a2.8,2.8,0,0,1,.51-1.1l.09-.11.13-.05A3.28,3.28,0,0,1,389.14,169.1Z" style="fill:#e0e0e0"></path><path d="M422.22,162.3s29.63,17.66,31.58,21a9.9,9.9,0,0,1,.84,5.24,2.84,2.84,0,0,1-4.77,1.93l-8.14-7.54-18.14-6.24Z" style="fill:#e0e0e0"></path><path d="M420.54,165.2a4.39,4.39,0,0,1,.39,1.16,14,14,0,0,1,.39,3.33,15.08,15.08,0,0,1-13.63,15.11,13.75,13.75,0,0,1-3.35,0,4.4,4.4,0,0,1-1.2-.27,24,24,0,0,0,4.51-.06A15.14,15.14,0,0,0,421,169.69,24.15,24.15,0,0,0,420.54,165.2Z" style="fill:#fff"></path><path d="M367.81,165.6a40.72,40.72,0,0,1-4.61,4.63,42.14,42.14,0,0,1-5,4.24,40.72,40.72,0,0,1,4.61-4.63A42.14,42.14,0,0,1,367.81,165.6Z" style="fill:#fff"></path><path d="M375.44,165.85a14.73,14.73,0,0,1-2.21,1.89c-1.4,1.12-3.37,2.64-5.55,4.28s-4.19,3.12-5.65,4.16a16.15,16.15,0,0,1-2.43,1.6,16.54,16.54,0,0,1,2.2-1.89c1.41-1.12,3.37-2.63,5.56-4.28s4.19-3.12,5.65-4.16A16.77,16.77,0,0,1,375.44,165.85Z" style="fill:#fff"></path><path d="M436.3,185.93c0-1.81,2.17-6,3.95-6.29,4.77-.68,13.34-.18,13.26,11.9-.11,16.53-16.67,13-16.7,12.53S436.2,192.16,436.3,185.93Z" style="fill:#ffbf9d"></path><path d="M441.9,197.85c.08,0,.29.2.77.43a2.93,2.93,0,0,0,2.16.06c1.74-.63,3.23-3.39,3.33-6.37a9.32,9.32,0,0,0-.78-4.13,3.3,3.3,0,0,0-2.15-2.22,1.46,1.46,0,0,0-1.7.78c-.22.46-.12.79-.21.81s-.35-.27-.21-1a1.85,1.85,0,0,1,.65-1,2.18,2.18,0,0,1,1.6-.41,4.06,4.06,0,0,1,3,2.59,9.82,9.82,0,0,1,1,4.61c-.12,3.33-1.85,6.43-4.24,7.1a3.08,3.08,0,0,1-2.63-.45C441.93,198.25,441.85,197.88,441.9,197.85Z" style="fill:#ff9a6c"></path><rect x="354.36" y="330.09" width="88.05" height="124.23" transform="translate(-98.35 135.72) rotate(-17.24)" style="fill:#263238"></rect><rect x="355.65" y="325.15" width="45.68" height="15.97" transform="translate(-81.74 127.17) rotate(-17.24)" style="fill:#263238"></rect><path d="M404.81,396.13s-20.2-9.66-25-11.05c-4-1.14-16.46,3.56-19.89,5.67a4,4,0,0,0-1.69,2.09L355.3,401s3.49,4.5,8.29-.61l1.09-2,6.76-3,6.36,3L364.53,404s-8.34-1.34-9.81-.68-3.77,5.06,1,8.92c0,0-4.22,3.77.45,9.72,0,0-3.62,3,3.66,9.25l.88.7s-3.41,4,1.44,7.24,15.89,0,18-1.09,29.95-10.5,29.95-10.5l16.48-.77-3.42-35.41Z" style="fill:#455a64"></path><path d="M370.84,413.8a6.56,6.56,0,0,1-2.14.81,16.49,16.49,0,0,1-5.49.43,16.71,16.71,0,0,1-5.34-1.38,7.06,7.06,0,0,1-2-1.16,26.32,26.32,0,0,0,7.34,2A25.55,25.55,0,0,0,370.84,413.8Z" style="fill:#263238"></path><path d="M368.46,425.29A17.42,17.42,0,0,1,355.64,422a37.94,37.94,0,0,0,6.22,2.39A38.35,38.35,0,0,0,368.46,425.29Z" style="fill:#263238"></path><path d="M372,433.19a18.19,18.19,0,0,1-11.67-1c.05-.14,2.56.7,5.79.95S372,433,372,433.19Z" style="fill:#263238"></path><path d="M477.47,265c1.5.44,22.25,4.73,32,68,4.73,30.55,8.14,44.74,7.75,57.44-.43,14.34-4.62,25-19.56,29.23l-76.95,22.41-9.49-47.55,60.33-17.09-7.07-44.48Z" style="fill:#e0e0e0"></path><path d="M503,418.07s-.14.06-.4.14l-1.19.37-4.6,1.39-17.2,5.09L420.83,442.3l-.26.08-.06-.28c-1.6-8-3.3-16.5-5-25.22-1.53-7.67-3-15.14-4.45-22.33l0-.23.23-.06,59.42-17.5h.07a21.94,21.94,0,0,1,10.32,4.4,21.7,21.7,0,0,1,7.5,11.2,15,15,0,0,1,.39,1.77s0-.15-.13-.44-.18-.73-.35-1.3a22.18,22.18,0,0,0-2.09-4.78,21.38,21.38,0,0,0-5.48-6.24,21.74,21.74,0,0,0-10.21-4.28h.07l-59.37,17.66.18-.3c1.43,7.19,2.93,14.66,4.46,22.33L421,442l-.32-.19,58.87-17.06,17.24-4.95,4.63-1.3,1.2-.33Z" style="fill:#263238"></path><path d="M478.31,272.34a3.86,3.86,0,0,1-.16.64c-.14.46-.32,1-.54,1.79s-.53,1.72-.84,2.83-.7,2.36-1.06,3.77c-.78,2.79-1.58,6.15-2.44,9.89s-1.69,7.87-2.53,12.22c-1.64,8.7-3,16.61-4,22.33-.51,2.85-1,5.16-1.27,6.75-.16.76-.29,1.36-.38,1.84a5.48,5.48,0,0,1-.17.63,2.62,2.62,0,0,1,.06-.65c.08-.48.17-1.09.29-1.85.27-1.67.65-4,1.11-6.79.95-5.72,2.22-13.64,3.87-22.36.84-4.35,1.71-8.48,2.57-12.23s1.73-7.09,2.55-9.88c.39-1.4.79-2.65,1.14-3.75s.65-2,.93-2.81.47-1.31.63-1.77A2.77,2.77,0,0,1,478.31,272.34Z" style="fill:#263238"></path></g></svg>